<?xml version="1.0" encoding="utf-8" standalone="no"?>
<!DOCTYPE svg PUBLIC "-//W3C//DTD SVG 1.1//EN"
  "http://www.w3.org/Graphics/SVG/1.1/DTD/svg11.dtd">
<svg xmlns:xlink="http://www.w3.org/1999/xlink" width="460.8pt" height="345.6pt" viewBox="0 0 460.8 345.6" xmlns="http://www.w3.org/2000/svg" version="1.1">
 <metadata>
  <rdf:RDF xmlns:dc="http://purl.org/dc/elements/1.1/" xmlns:cc="http://creativecommons.org/ns#" xmlns:rdf="http://www.w3.org/1999/02/22-rdf-syntax-ns#">
   <cc:Work>
    <dc:type rdf:resource="http://purl.org/dc/dcmitype/StillImage"/>
    <dc:date>2023-06-23T18:49:58.448778</dc:date>
    <dc:format>image/svg+xml</dc:format>
    <dc:creator>
     <cc:Agent>
      <dc:title>Matplotlib v3.7.1, https://matplotlib.org/</dc:title>
     </cc:Agent>
    </dc:creator>
   </cc:Work>
  </rdf:RDF>
 </metadata>
 <defs>
  <style type="text/css">*{stroke-linejoin: round; stroke-linecap: butt}</style>
 </defs>
 <g id="figure_1">
  <g id="patch_1">
   <path d="M 0 345.6 
L 460.8 345.6 
L 460.8 0 
L 0 0 
z
" style="fill: #ffffff"/>
  </g>
  <g id="axes_1">
   <g id="patch_2">
    <path d="M 57.6 307.584 
L 414.72 307.584 
L 414.72 41.472 
L 57.6 41.472 
z
" style="fill: #ffffff"/>
   </g>
   <g id="PolyCollection_1">
    <defs>
     <path id="m8d58191a9f" d="M 73.832727 -170.760327 
L 73.832727 -171.383673 
L 77.112066 -171.568611 
L 80.391405 -171.815957 
L 83.670744 -172.119839 
L 86.950083 -172.459574 
L 90.229421 -172.799557 
L 93.50876 -173.094197 
L 96.788099 -173.297508 
L 100.067438 -173.374766 
L 103.346777 -173.312192 
L 106.626116 -173.120969 
L 109.905455 -172.833978 
L 113.184793 -172.496558 
L 116.464132 -172.154866 
L 119.743471 -171.845899 
L 123.02281 -171.592006 
L 126.302149 -171.400509 
L 129.581488 -171.26712 
L 132.860826 -171.180961 
L 136.140165 -171.129207 
L 139.419504 -171.100239 
L 142.698843 -171.085106 
L 145.978182 -171.077719 
L 149.257521 -171.074346 
L 152.53686 -171.072905 
L 155.816198 -171.072328 
L 159.095537 -171.072112 
L 162.374876 -171.072036 
L 165.654215 -171.072011 
L 168.933554 -171.072003 
L 172.212893 -171.072001 
L 175.492231 -171.072 
L 178.77157 -171.072 
L 182.050909 -171.072 
L 185.330248 -171.072 
L 188.609587 -171.072 
L 191.888926 -171.072 
L 195.168264 -171.072 
L 198.447603 -171.072 
L 201.726942 -171.072 
L 205.006281 -171.072 
L 208.28562 -171.072 
L 211.564959 -171.072 
L 214.844298 -171.072 
L 218.123636 -171.072001 
L 221.402975 -171.072003 
L 224.682314 -171.072012 
L 227.961653 -171.072041 
L 231.240992 -171.072132 
L 234.520331 -171.072401 
L 237.799669 -171.073142 
L 241.079008 -171.075072 
L 244.358347 -171.079793 
L 247.637686 -171.090666 
L 250.917025 -171.114252 
L 254.196364 -171.162487 
L 257.475702 -171.255582 
L 260.755041 -171.42544 
L 264.03438 -171.719023 
L 267.313719 -172.201009 
L 270.593058 -172.955144 
L 273.872397 -174.084179 
L 277.151736 -175.708811 
L 280.431074 -177.966135 
L 283.710413 -181.007332 
L 286.989752 -184.992597 
L 290.269091 -190.079502 
L 293.54843 -196.400585 
L 296.827769 -204.02815 
L 300.107107 -212.929292 
L 303.386446 -222.92054 
L 306.665785 -233.636617 
L 309.945124 -244.528826 
L 313.224463 -254.904081 
L 316.503802 -264.005817 
L 319.78314 -271.125482 
L 323.062479 -275.721595 
L 326.341818 -277.5168 
L 329.621157 -276.545184 
L 332.900496 -273.133592 
L 336.179835 -267.819368 
L 339.459174 -261.227048 
L 342.738512 -253.940244 
L 346.017851 -246.405998 
L 349.29719 -238.895979 
L 352.576529 -231.526985 
L 355.855868 -224.321997 
L 359.135207 -217.281528 
L 362.414545 -210.437394 
L 365.693884 -203.874048 
L 368.973223 -197.718635 
L 372.252562 -192.112146 
L 375.531901 -187.177001 
L 378.81124 -182.992519 
L 382.090579 -179.583281 
L 385.369917 -176.919914 
L 388.649256 -174.928995 
L 391.928595 -173.508048 
L 395.207934 -172.541925 
L 398.487273 -171.917519 
L 398.487273 -170.226481 
L 398.487273 -170.226481 
L 395.207934 -169.602075 
L 391.928595 -168.635952 
L 388.649256 -167.215005 
L 385.369917 -165.224086 
L 382.090579 -162.560719 
L 378.81124 -159.151481 
L 375.531901 -154.966999 
L 372.252562 -150.031854 
L 368.973223 -144.425365 
L 365.693884 -138.269952 
L 362.414545 -131.706606 
L 359.135207 -124.862472 
L 355.855868 -117.822003 
L 352.576529 -110.617015 
L 349.29719 -103.248021 
L 346.017851 -95.738002 
L 342.738512 -88.203756 
L 339.459174 -80.916952 
L 336.179835 -74.324632 
L 332.900496 -69.010408 
L 329.621157 -65.598816 
L 326.341818 -64.6272 
L 323.062479 -66.422405 
L 319.78314 -71.018518 
L 316.503802 -78.138183 
L 313.224463 -87.239919 
L 309.945124 -97.615174 
L 306.665785 -108.507383 
L 303.386446 -119.22346 
L 300.107107 -129.214708 
L 296.827769 -138.11585 
L 293.54843 -145.743415 
L 290.269091 -152.064498 
L 286.989752 -157.151403 
L 283.710413 -161.136668 
L 280.431074 -164.177865 
L 277.151736 -166.435189 
L 273.872397 -168.059821 
L 270.593058 -169.188856 
L 267.313719 -169.942991 
L 264.03438 -170.424977 
L 260.755041 -170.71856 
L 257.475702 -170.888418 
L 254.196364 -170.981513 
L 250.917025 -171.029748 
L 247.637686 -171.053334 
L 244.358347 -171.064207 
L 241.079008 -171.068928 
L 237.799669 -171.070858 
L 234.520331 -171.071599 
L 231.240992 -171.071868 
L 227.961653 -171.071959 
L 224.682314 -171.071988 
L 221.402975 -171.071997 
L 218.123636 -171.071999 
L 214.844298 -171.072 
L 211.564959 -171.072 
L 208.28562 -171.072 
L 205.006281 -171.072 
L 201.726942 -171.072 
L 198.447603 -171.072 
L 195.168264 -171.072 
L 191.888926 -171.072 
L 188.609587 -171.072 
L 185.330248 -171.072 
L 182.050909 -171.072 
L 178.77157 -171.072 
L 175.492231 -171.072 
L 172.212893 -171.071999 
L 168.933554 -171.071997 
L 165.654215 -171.071989 
L 162.374876 -171.071964 
L 159.095537 -171.071888 
L 155.816198 -171.071672 
L 152.53686 -171.071095 
L 149.257521 -171.069654 
L 145.978182 -171.066281 
L 142.698843 -171.058894 
L 139.419504 -171.043761 
L 136.140165 -171.014793 
L 132.860826 -170.963039 
L 129.581488 -170.87688 
L 126.302149 -170.743491 
L 123.02281 -170.551994 
L 119.743471 -170.298101 
L 116.464132 -169.989134 
L 113.184793 -169.647442 
L 109.905455 -169.310022 
L 106.626116 -169.023031 
L 103.346777 -168.831808 
L 100.067438 -168.769234 
L 96.788099 -168.846492 
L 93.50876 -169.049803 
L 90.229421 -169.344443 
L 86.950083 -169.684426 
L 83.670744 -170.024161 
L 80.391405 -170.328043 
L 77.112066 -170.575389 
L 73.832727 -170.760327 
z
" style="stroke: #3f3f3f; stroke-width: 1.5"/>
    </defs>
    <g clip-path="url(#pd91d34b37e)">
     <use xlink:href="#m8d58191a9f" x="0" y="345.6" style="fill: #3274a1; stroke: #3f3f3f; stroke-width: 1.5"/>
    </g>
   </g>
   <g id="matplotlib.axis_1">
    <g id="xtick_1">
     <g id="line2d_1">
      <defs>
       <path id="mb46186e457" d="M 0 0 
L 0 3.5 
" style="stroke: #000000; stroke-width: 0.8"/>
      </defs>
      <g>
       <use xlink:href="#mb46186e457" x="58.667435" y="307.584" style="stroke: #000000; stroke-width: 0.8"/>
      </g>
     </g>
     <g id="text_1">
      <!-- 34.50 -->
      <g transform="translate(44.353373 322.182437) scale(0.1 -0.1)">
       <defs>
        <path id="DejaVuSans-33" d="M 2597 2516 
Q 3050 2419 3304 2112 
Q 3559 1806 3559 1356 
Q 3559 666 3084 287 
Q 2609 -91 1734 -91 
Q 1441 -91 1130 -33 
Q 819 25 488 141 
L 488 750 
Q 750 597 1062 519 
Q 1375 441 1716 441 
Q 2309 441 2620 675 
Q 2931 909 2931 1356 
Q 2931 1769 2642 2001 
Q 2353 2234 1838 2234 
L 1294 2234 
L 1294 2753 
L 1863 2753 
Q 2328 2753 2575 2939 
Q 2822 3125 2822 3475 
Q 2822 3834 2567 4026 
Q 2313 4219 1838 4219 
Q 1578 4219 1281 4162 
Q 984 4106 628 3988 
L 628 4550 
Q 988 4650 1302 4700 
Q 1616 4750 1894 4750 
Q 2613 4750 3031 4423 
Q 3450 4097 3450 3541 
Q 3450 3153 3228 2886 
Q 3006 2619 2597 2516 
z
" transform="scale(0.015625)"/>
        <path id="DejaVuSans-34" d="M 2419 4116 
L 825 1625 
L 2419 1625 
L 2419 4116 
z
M 2253 4666 
L 3047 4666 
L 3047 1625 
L 3713 1625 
L 3713 1100 
L 3047 1100 
L 3047 0 
L 2419 0 
L 2419 1100 
L 313 1100 
L 313 1709 
L 2253 4666 
z
" transform="scale(0.015625)"/>
        <path id="DejaVuSans-2e" d="M 684 794 
L 1344 794 
L 1344 0 
L 684 0 
L 684 794 
z
" transform="scale(0.015625)"/>
        <path id="DejaVuSans-35" d="M 691 4666 
L 3169 4666 
L 3169 4134 
L 1269 4134 
L 1269 2991 
Q 1406 3038 1543 3061 
Q 1681 3084 1819 3084 
Q 2600 3084 3056 2656 
Q 3513 2228 3513 1497 
Q 3513 744 3044 326 
Q 2575 -91 1722 -91 
Q 1428 -91 1123 -41 
Q 819 9 494 109 
L 494 744 
Q 775 591 1075 516 
Q 1375 441 1709 441 
Q 2250 441 2565 725 
Q 2881 1009 2881 1497 
Q 2881 1984 2565 2268 
Q 2250 2553 1709 2553 
Q 1456 2553 1204 2497 
Q 953 2441 691 2322 
L 691 4666 
z
" transform="scale(0.015625)"/>
        <path id="DejaVuSans-30" d="M 2034 4250 
Q 1547 4250 1301 3770 
Q 1056 3291 1056 2328 
Q 1056 1369 1301 889 
Q 1547 409 2034 409 
Q 2525 409 2770 889 
Q 3016 1369 3016 2328 
Q 3016 3291 2770 3770 
Q 2525 4250 2034 4250 
z
M 2034 4750 
Q 2819 4750 3233 4129 
Q 3647 3509 3647 2328 
Q 3647 1150 3233 529 
Q 2819 -91 2034 -91 
Q 1250 -91 836 529 
Q 422 1150 422 2328 
Q 422 3509 836 4129 
Q 1250 4750 2034 4750 
z
" transform="scale(0.015625)"/>
       </defs>
       <use xlink:href="#DejaVuSans-33"/>
       <use xlink:href="#DejaVuSans-34" x="63.623047"/>
       <use xlink:href="#DejaVuSans-2e" x="127.246094"/>
       <use xlink:href="#DejaVuSans-35" x="159.033203"/>
       <use xlink:href="#DejaVuSans-30" x="222.65625"/>
      </g>
     </g>
    </g>
    <g id="xtick_2">
     <g id="line2d_2">
      <g>
       <use xlink:href="#mb46186e457" x="98.643238" y="307.584" style="stroke: #000000; stroke-width: 0.8"/>
      </g>
     </g>
     <g id="text_2">
      <!-- 34.75 -->
      <g transform="translate(84.329175 322.182437) scale(0.1 -0.1)">
       <defs>
        <path id="DejaVuSans-37" d="M 525 4666 
L 3525 4666 
L 3525 4397 
L 1831 0 
L 1172 0 
L 2766 4134 
L 525 4134 
L 525 4666 
z
" transform="scale(0.015625)"/>
       </defs>
       <use xlink:href="#DejaVuSans-33"/>
       <use xlink:href="#DejaVuSans-34" x="63.623047"/>
       <use xlink:href="#DejaVuSans-2e" x="127.246094"/>
       <use xlink:href="#DejaVuSans-37" x="159.033203"/>
       <use xlink:href="#DejaVuSans-35" x="222.65625"/>
      </g>
     </g>
    </g>
    <g id="xtick_3">
     <g id="line2d_3">
      <g>
       <use xlink:href="#mb46186e457" x="138.619041" y="307.584" style="stroke: #000000; stroke-width: 0.8"/>
      </g>
     </g>
     <g id="text_3">
      <!-- 35.00 -->
      <g transform="translate(124.304978 322.182437) scale(0.1 -0.1)">
       <use xlink:href="#DejaVuSans-33"/>
       <use xlink:href="#DejaVuSans-35" x="63.623047"/>
       <use xlink:href="#DejaVuSans-2e" x="127.246094"/>
       <use xlink:href="#DejaVuSans-30" x="159.033203"/>
       <use xlink:href="#DejaVuSans-30" x="222.65625"/>
      </g>
     </g>
    </g>
    <g id="xtick_4">
     <g id="line2d_4">
      <g>
       <use xlink:href="#mb46186e457" x="178.594844" y="307.584" style="stroke: #000000; stroke-width: 0.8"/>
      </g>
     </g>
     <g id="text_4">
      <!-- 35.25 -->
      <g transform="translate(164.280781 322.182437) scale(0.1 -0.1)">
       <defs>
        <path id="DejaVuSans-32" d="M 1228 531 
L 3431 531 
L 3431 0 
L 469 0 
L 469 531 
Q 828 903 1448 1529 
Q 2069 2156 2228 2338 
Q 2531 2678 2651 2914 
Q 2772 3150 2772 3378 
Q 2772 3750 2511 3984 
Q 2250 4219 1831 4219 
Q 1534 4219 1204 4116 
Q 875 4013 500 3803 
L 500 4441 
Q 881 4594 1212 4672 
Q 1544 4750 1819 4750 
Q 2544 4750 2975 4387 
Q 3406 4025 3406 3419 
Q 3406 3131 3298 2873 
Q 3191 2616 2906 2266 
Q 2828 2175 2409 1742 
Q 1991 1309 1228 531 
z
" transform="scale(0.015625)"/>
       </defs>
       <use xlink:href="#DejaVuSans-33"/>
       <use xlink:href="#DejaVuSans-35" x="63.623047"/>
       <use xlink:href="#DejaVuSans-2e" x="127.246094"/>
       <use xlink:href="#DejaVuSans-32" x="159.033203"/>
       <use xlink:href="#DejaVuSans-35" x="222.65625"/>
      </g>
     </g>
    </g>
    <g id="xtick_5">
     <g id="line2d_5">
      <g>
       <use xlink:href="#mb46186e457" x="218.570647" y="307.584" style="stroke: #000000; stroke-width: 0.8"/>
      </g>
     </g>
     <g id="text_5">
      <!-- 35.50 -->
      <g transform="translate(204.256584 322.182437) scale(0.1 -0.1)">
       <use xlink:href="#DejaVuSans-33"/>
       <use xlink:href="#DejaVuSans-35" x="63.623047"/>
       <use xlink:href="#DejaVuSans-2e" x="127.246094"/>
       <use xlink:href="#DejaVuSans-35" x="159.033203"/>
       <use xlink:href="#DejaVuSans-30" x="222.65625"/>
      </g>
     </g>
    </g>
    <g id="xtick_6">
     <g id="line2d_6">
      <g>
       <use xlink:href="#mb46186e457" x="258.54645" y="307.584" style="stroke: #000000; stroke-width: 0.8"/>
      </g>
     </g>
     <g id="text_6">
      <!-- 35.75 -->
      <g transform="translate(244.232387 322.182437) scale(0.1 -0.1)">
       <use xlink:href="#DejaVuSans-33"/>
       <use xlink:href="#DejaVuSans-35" x="63.623047"/>
       <use xlink:href="#DejaVuSans-2e" x="127.246094"/>
       <use xlink:href="#DejaVuSans-37" x="159.033203"/>
       <use xlink:href="#DejaVuSans-35" x="222.65625"/>
      </g>
     </g>
    </g>
    <g id="xtick_7">
     <g id="line2d_7">
      <g>
       <use xlink:href="#mb46186e457" x="298.522253" y="307.584" style="stroke: #000000; stroke-width: 0.8"/>
      </g>
     </g>
     <g id="text_7">
      <!-- 36.00 -->
      <g transform="translate(284.20819 322.182437) scale(0.1 -0.1)">
       <defs>
        <path id="DejaVuSans-36" d="M 2113 2584 
Q 1688 2584 1439 2293 
Q 1191 2003 1191 1497 
Q 1191 994 1439 701 
Q 1688 409 2113 409 
Q 2538 409 2786 701 
Q 3034 994 3034 1497 
Q 3034 2003 2786 2293 
Q 2538 2584 2113 2584 
z
M 3366 4563 
L 3366 3988 
Q 3128 4100 2886 4159 
Q 2644 4219 2406 4219 
Q 1781 4219 1451 3797 
Q 1122 3375 1075 2522 
Q 1259 2794 1537 2939 
Q 1816 3084 2150 3084 
Q 2853 3084 3261 2657 
Q 3669 2231 3669 1497 
Q 3669 778 3244 343 
Q 2819 -91 2113 -91 
Q 1303 -91 875 529 
Q 447 1150 447 2328 
Q 447 3434 972 4092 
Q 1497 4750 2381 4750 
Q 2619 4750 2861 4703 
Q 3103 4656 3366 4563 
z
" transform="scale(0.015625)"/>
       </defs>
       <use xlink:href="#DejaVuSans-33"/>
       <use xlink:href="#DejaVuSans-36" x="63.623047"/>
       <use xlink:href="#DejaVuSans-2e" x="127.246094"/>
       <use xlink:href="#DejaVuSans-30" x="159.033203"/>
       <use xlink:href="#DejaVuSans-30" x="222.65625"/>
      </g>
     </g>
    </g>
    <g id="xtick_8">
     <g id="line2d_8">
      <g>
       <use xlink:href="#mb46186e457" x="338.498055" y="307.584" style="stroke: #000000; stroke-width: 0.8"/>
      </g>
     </g>
     <g id="text_8">
      <!-- 36.25 -->
      <g transform="translate(324.183993 322.182437) scale(0.1 -0.1)">
       <use xlink:href="#DejaVuSans-33"/>
       <use xlink:href="#DejaVuSans-36" x="63.623047"/>
       <use xlink:href="#DejaVuSans-2e" x="127.246094"/>
       <use xlink:href="#DejaVuSans-32" x="159.033203"/>
       <use xlink:href="#DejaVuSans-35" x="222.65625"/>
      </g>
     </g>
    </g>
    <g id="xtick_9">
     <g id="line2d_9">
      <g>
       <use xlink:href="#mb46186e457" x="378.473858" y="307.584" style="stroke: #000000; stroke-width: 0.8"/>
      </g>
     </g>
     <g id="text_9">
      <!-- 36.50 -->
      <g transform="translate(364.159796 322.182437) scale(0.1 -0.1)">
       <use xlink:href="#DejaVuSans-33"/>
       <use xlink:href="#DejaVuSans-36" x="63.623047"/>
       <use xlink:href="#DejaVuSans-2e" x="127.246094"/>
       <use xlink:href="#DejaVuSans-35" x="159.033203"/>
       <use xlink:href="#DejaVuSans-30" x="222.65625"/>
      </g>
     </g>
    </g>
   </g>
   <g id="matplotlib.axis_2">
    <g id="ytick_1">
     <g id="line2d_10">
      <defs>
       <path id="m03ebfb903a" d="M 0 0 
L -3.5 0 
" style="stroke: #000000; stroke-width: 0.8"/>
      </defs>
      <g>
       <use xlink:href="#m03ebfb903a" x="57.6" y="174.528" style="stroke: #000000; stroke-width: 0.8"/>
      </g>
     </g>
    </g>
   </g>
   <g id="line2d_11">
    <path d="M 318.110396 82.523521 
L 318.110396 266.532479 
" clip-path="url(#pd91d34b37e)" style="fill: none; stroke-dasharray: 3.375,3.375; stroke-dashoffset: 0; stroke: #3f3f3f; stroke-width: 1.5"/>
   </g>
   <g id="line2d_12">
    <path d="M 328.903863 70.109547 
L 328.903863 278.946453 
" clip-path="url(#pd91d34b37e)" style="fill: none; stroke-dasharray: 6.75,6.75; stroke-dashoffset: 0; stroke: #3f3f3f; stroke-width: 1.5"/>
   </g>
   <g id="line2d_13">
    <path d="M 340.097088 85.274502 
L 340.097088 263.781498 
" clip-path="url(#pd91d34b37e)" style="fill: none; stroke-dasharray: 3.375,3.375; stroke-dashoffset: 0; stroke: #3f3f3f; stroke-width: 1.5"/>
   </g>
   <g id="patch_3">
    <path d="M 57.6 307.584 
L 57.6 41.472 
" style="fill: none; stroke: #000000; stroke-width: 0.8; stroke-linejoin: miter; stroke-linecap: square"/>
   </g>
   <g id="patch_4">
    <path d="M 414.72 307.584 
L 414.72 41.472 
" style="fill: none; stroke: #000000; stroke-width: 0.8; stroke-linejoin: miter; stroke-linecap: square"/>
   </g>
   <g id="patch_5">
    <path d="M 57.6 307.584 
L 414.72 307.584 
" style="fill: none; stroke: #000000; stroke-width: 0.8; stroke-linejoin: miter; stroke-linecap: square"/>
   </g>
   <g id="patch_6">
    <path d="M 57.6 41.472 
L 414.72 41.472 
" style="fill: none; stroke: #000000; stroke-width: 0.8; stroke-linejoin: miter; stroke-linecap: square"/>
   </g>
   <g id="legend_1">
    <g id="patch_7">
     <path d="M 403.72 54.472 
L 407.72 54.472 
Q 409.72 54.472 409.72 52.472 
L 409.72 48.472 
Q 409.72 46.472 407.72 46.472 
L 403.72 46.472 
Q 401.72 46.472 401.72 48.472 
L 401.72 52.472 
Q 401.72 54.472 403.72 54.472 
z
" style="fill: #ffffff; opacity: 0.8; stroke: #cccccc; stroke-linejoin: miter"/>
    </g>
   </g>
  </g>
 </g>
 <defs>
  <clipPath id="pd91d34b37e">
   <rect x="57.6" y="41.472" width="357.12" height="266.112"/>
  </clipPath>
 </defs>
</svg>
