<?xml version="1.0" encoding="utf-8" standalone="no"?>
<!DOCTYPE svg PUBLIC "-//W3C//DTD SVG 1.1//EN"
  "http://www.w3.org/Graphics/SVG/1.1/DTD/svg11.dtd">
<svg xmlns:xlink="http://www.w3.org/1999/xlink" width="460.8pt" height="345.6pt" viewBox="0 0 460.8 345.6" xmlns="http://www.w3.org/2000/svg" version="1.1">
 <metadata>
  <rdf:RDF xmlns:dc="http://purl.org/dc/elements/1.1/" xmlns:cc="http://creativecommons.org/ns#" xmlns:rdf="http://www.w3.org/1999/02/22-rdf-syntax-ns#">
   <cc:Work>
    <dc:type rdf:resource="http://purl.org/dc/dcmitype/StillImage"/>
    <dc:date>2023-06-23T19:02:08.617093</dc:date>
    <dc:format>image/svg+xml</dc:format>
    <dc:creator>
     <cc:Agent>
      <dc:title>Matplotlib v3.7.1, https://matplotlib.org/</dc:title>
     </cc:Agent>
    </dc:creator>
   </cc:Work>
  </rdf:RDF>
 </metadata>
 <defs>
  <style type="text/css">*{stroke-linejoin: round; stroke-linecap: butt}</style>
 </defs>
 <g id="figure_1">
  <g id="patch_1">
   <path d="M 0 345.6 
L 460.8 345.6 
L 460.8 0 
L 0 0 
z
" style="fill: #ffffff"/>
  </g>
  <g id="axes_1">
   <g id="patch_2">
    <path d="M 57.6 307.584 
L 414.72 307.584 
L 414.72 41.472 
L 57.6 41.472 
z
" style="fill: #ffffff"/>
   </g>
   <g id="PolyCollection_1">
    <path d="M 168.242856 91.990588 
L 87.64078 91.990588 
L 85.860123 91.602481 
L 84.166196 91.214374 
L 82.57189 90.826267 
L 81.088919 90.43816 
L 79.727626 90.050053 
L 78.496826 89.661947 
L 77.403676 89.27384 
L 76.453588 88.885733 
L 75.650167 88.497626 
L 74.995189 88.109519 
L 74.488617 87.721412 
L 74.128632 87.333305 
L 73.911714 86.945198 
L 73.832727 86.557091 
L 73.885039 86.168984 
L 74.060656 85.780877 
L 74.35037 85.39277 
L 74.743918 85.004663 
L 75.230157 84.616556 
L 75.797236 84.228449 
L 76.432782 83.840342 
L 77.124082 83.452235 
L 77.858275 83.064128 
L 78.622534 82.676021 
L 79.404253 82.287914 
L 80.191232 81.899807 
L 80.971853 81.511701 
L 81.735246 81.123594 
L 82.471453 80.735487 
L 83.171572 80.34738 
L 83.827888 79.959273 
L 84.433982 79.571166 
L 84.984824 79.183059 
L 85.476833 78.794952 
L 85.907916 78.406845 
L 86.277475 78.018738 
L 86.586387 77.630631 
L 86.836947 77.242524 
L 87.032789 76.854417 
L 87.178774 76.46631 
L 87.280856 76.078203 
L 87.34592 75.690096 
L 87.38161 75.301989 
L 87.396135 74.913882 
L 87.398077 74.525775 
L 87.396186 74.137668 
L 87.399182 73.749561 
L 87.415571 73.361455 
L 87.453462 72.973348 
L 87.520407 72.585241 
L 87.623267 72.197134 
L 87.768086 71.809027 
L 87.960006 71.42092 
L 88.203197 71.032813 
L 88.500816 70.644706 
L 88.854995 70.256599 
L 89.266841 69.868492 
L 89.736472 69.480385 
L 90.263063 69.092278 
L 90.844908 68.704171 
L 91.479501 68.316064 
L 92.163622 67.927957 
L 92.893429 67.53985 
L 93.664565 67.151743 
L 94.472253 66.763636 
L 95.311399 66.375529 
L 96.176696 65.987422 
L 97.062717 65.599316 
L 97.964007 65.211209 
L 98.875171 64.823102 
L 99.790957 64.434995 
L 100.706325 64.046888 
L 101.61652 63.658781 
L 102.517127 63.270674 
L 103.404128 62.882567 
L 104.273943 62.49446 
L 105.12347 62.106353 
L 105.95011 61.718246 
L 106.751788 61.330139 
L 107.526963 60.942032 
L 108.274629 60.553925 
L 108.994303 60.165818 
L 109.68601 59.777711 
L 110.350252 59.389604 
L 110.987968 59.001497 
L 111.600492 58.61339 
L 112.189495 58.225283 
L 112.756923 57.837176 
L 113.304929 57.44907 
L 113.835806 57.060963 
L 114.35191 56.672856 
L 114.85559 56.284749 
L 115.349115 55.896642 
L 115.834608 55.508535 
L 116.313987 55.120428 
L 116.788914 54.732321 
L 117.260747 54.344214 
L 117.730513 53.956107 
L 118.198884 53.568 
L 137.684753 53.568 
L 137.684753 53.568 
L 138.153123 53.956107 
L 138.622889 54.344214 
L 139.094722 54.732321 
L 139.569649 55.120428 
L 140.049029 55.508535 
L 140.534522 55.896642 
L 141.028046 56.284749 
L 141.531726 56.672856 
L 142.04783 57.060963 
L 142.578707 57.44907 
L 143.126714 57.837176 
L 143.694141 58.225283 
L 144.283144 58.61339 
L 144.895668 59.001497 
L 145.533385 59.389604 
L 146.197626 59.777711 
L 146.889333 60.165818 
L 147.609007 60.553925 
L 148.356673 60.942032 
L 149.131848 61.330139 
L 149.933527 61.718246 
L 150.760167 62.106353 
L 151.609694 62.49446 
L 152.479509 62.882567 
L 153.36651 63.270674 
L 154.267117 63.658781 
L 155.177311 64.046888 
L 156.09268 64.434995 
L 157.008465 64.823102 
L 157.91963 65.211209 
L 158.820919 65.599316 
L 159.70694 65.987422 
L 160.572237 66.375529 
L 161.411384 66.763636 
L 162.219071 67.151743 
L 162.990207 67.53985 
L 163.720015 67.927957 
L 164.404135 68.316064 
L 165.038728 68.704171 
L 165.620574 69.092278 
L 166.147164 69.480385 
L 166.616796 69.868492 
L 167.028642 70.256599 
L 167.38282 70.644706 
L 167.68044 71.032813 
L 167.923631 71.42092 
L 168.115551 71.809027 
L 168.26037 72.197134 
L 168.363229 72.585241 
L 168.430175 72.973348 
L 168.468065 73.361455 
L 168.484454 73.749561 
L 168.487451 74.137668 
L 168.485559 74.525775 
L 168.487501 74.913882 
L 168.502027 75.301989 
L 168.537716 75.690096 
L 168.60278 76.078203 
L 168.704862 76.46631 
L 168.850848 76.854417 
L 169.04669 77.242524 
L 169.297249 77.630631 
L 169.606161 78.018738 
L 169.97572 78.406845 
L 170.406803 78.794952 
L 170.898812 79.183059 
L 171.449654 79.571166 
L 172.055748 79.959273 
L 172.712064 80.34738 
L 173.412184 80.735487 
L 174.148391 81.123594 
L 174.911784 81.511701 
L 175.692404 81.899807 
L 176.479384 82.287914 
L 177.261103 82.676021 
L 178.025361 83.064128 
L 178.759554 83.452235 
L 179.450855 83.840342 
L 180.0864 84.228449 
L 180.65348 84.616556 
L 181.139718 85.004663 
L 181.533267 85.39277 
L 181.82298 85.780877 
L 181.998597 86.168984 
L 182.050909 86.557091 
L 181.971922 86.945198 
L 181.755004 87.333305 
L 181.39502 87.721412 
L 180.888447 88.109519 
L 180.23347 88.497626 
L 179.430048 88.885733 
L 178.47996 89.27384 
L 177.386811 89.661947 
L 176.15601 90.050053 
L 174.794718 90.43816 
L 173.311747 90.826267 
L 171.717441 91.214374 
L 170.023513 91.602481 
L 168.242856 91.990588 
z
" clip-path="url(#p2bdddcd723)" style="fill: #1f77b4; fill-opacity: 0.3"/>
   </g>
   <g id="PolyCollection_2">
    <path d="M 345.98243 295.488 
L 342.773933 295.488 
L 342.788327 293.432471 
L 342.830739 291.376941 
L 342.898925 289.321412 
L 342.989368 287.265882 
L 343.097575 285.210353 
L 343.218445 283.154824 
L 343.346669 281.099294 
L 343.477106 279.043765 
L 343.605111 276.988235 
L 343.72678 274.932706 
L 343.839105 272.877176 
L 343.940032 270.821647 
L 344.028424 268.766118 
L 344.103972 266.710588 
L 344.167042 264.655059 
L 344.218509 262.599529 
L 344.259588 260.544 
L 344.291673 258.488471 
L 344.316204 256.432941 
L 344.334572 254.377412 
L 344.348045 252.321882 
L 344.357727 250.266353 
L 344.364547 248.210824 
L 344.369255 246.155294 
L 344.372442 244.099765 
L 344.374557 242.044235 
L 344.375934 239.988706 
L 344.376812 237.933176 
L 344.377363 235.877647 
L 344.3777 233.822118 
L 344.377904 231.766588 
L 344.378024 229.711059 
L 344.378094 227.655529 
L 344.378134 225.6 
L 344.378156 223.544471 
L 344.378168 221.488941 
L 344.378175 219.433412 
L 344.378178 217.377882 
L 344.37818 215.322353 
L 344.378181 213.266824 
L 344.378181 211.211294 
L 344.378181 209.155765 
L 344.37818 207.100235 
L 344.378178 205.044706 
L 344.378174 202.989176 
L 344.378166 200.933647 
L 344.378151 198.878118 
L 344.378123 196.822588 
L 344.378072 194.767059 
L 344.377981 192.711529 
L 344.377818 190.656 
L 344.377534 188.600471 
L 344.37705 186.544941 
L 344.376235 184.489412 
L 344.374888 182.433882 
L 344.372701 180.378353 
L 344.369208 178.322824 
L 344.363724 176.267294 
L 344.355256 174.211765 
L 344.342396 172.156235 
L 344.323182 170.100706 
L 344.294931 168.045176 
L 344.254048 165.989647 
L 344.195801 163.934118 
L 344.114079 161.878588 
L 344.001131 159.823059 
L 343.847311 157.767529 
L 343.640832 155.712 
L 343.367563 153.656471 
L 343.010879 151.600941 
L 342.551612 149.545412 
L 341.968128 147.489882 
L 341.236567 145.434353 
L 340.331307 143.378824 
L 339.225684 141.323294 
L 337.893008 139.267765 
L 336.30794 137.212235 
L 334.448202 135.156706 
L 332.296658 133.101176 
L 329.843666 131.045647 
L 327.089626 128.990118 
L 324.047541 126.934588 
L 320.745355 124.879059 
L 317.227808 122.823529 
L 313.557465 120.768 
L 309.814645 118.712471 
L 306.095973 116.656941 
L 302.511399 114.601412 
L 299.179668 112.545882 
L 296.222388 110.490353 
L 293.757046 108.434824 
L 291.889484 106.379294 
L 290.706468 104.323765 
L 290.269091 102.268235 
L 290.607673 100.212706 
L 291.718751 98.157176 
L 293.564541 96.101647 
L 296.075009 94.046118 
L 299.152386 91.990588 
L 389.603977 91.990588 
L 389.603977 91.990588 
L 392.681354 94.046118 
L 395.191822 96.101647 
L 397.037613 98.157176 
L 398.14869 100.212706 
L 398.487273 102.268235 
L 398.049896 104.323765 
L 396.86688 106.379294 
L 394.999317 108.434824 
L 392.533976 110.490353 
L 389.576696 112.545882 
L 386.244964 114.601412 
L 382.660391 116.656941 
L 378.941719 118.712471 
L 375.198899 120.768 
L 371.528556 122.823529 
L 368.011008 124.879059 
L 364.708823 126.934588 
L 361.666737 128.990118 
L 358.912698 131.045647 
L 356.459705 133.101176 
L 354.308161 135.156706 
L 352.448424 137.212235 
L 350.863355 139.267765 
L 349.53068 141.323294 
L 348.425056 143.378824 
L 347.519797 145.434353 
L 346.788236 147.489882 
L 346.204751 149.545412 
L 345.745485 151.600941 
L 345.388801 153.656471 
L 345.115532 155.712 
L 344.909053 157.767529 
L 344.755233 159.823059 
L 344.642285 161.878588 
L 344.560562 163.934118 
L 344.502316 165.989647 
L 344.461433 168.045176 
L 344.433182 170.100706 
L 344.413967 172.156235 
L 344.401107 174.211765 
L 344.39264 176.267294 
L 344.387156 178.322824 
L 344.383663 180.378353 
L 344.381476 182.433882 
L 344.380129 184.489412 
L 344.379314 186.544941 
L 344.378829 188.600471 
L 344.378546 190.656 
L 344.378383 192.711529 
L 344.378291 194.767059 
L 344.37824 196.822588 
L 344.378213 198.878118 
L 344.378198 200.933647 
L 344.37819 202.989176 
L 344.378186 205.044706 
L 344.378184 207.100235 
L 344.378183 209.155765 
L 344.378183 211.211294 
L 344.378183 213.266824 
L 344.378184 215.322353 
L 344.378185 217.377882 
L 344.378189 219.433412 
L 344.378195 221.488941 
L 344.378208 223.544471 
L 344.37823 225.6 
L 344.378269 227.655529 
L 344.378339 229.711059 
L 344.37846 231.766588 
L 344.378663 233.822118 
L 344.379001 235.877647 
L 344.379551 237.933176 
L 344.38043 239.988706 
L 344.381806 242.044235 
L 344.383921 244.099765 
L 344.387108 246.155294 
L 344.391817 248.210824 
L 344.398636 250.266353 
L 344.408319 252.321882 
L 344.421791 254.377412 
L 344.44016 256.432941 
L 344.464691 258.488471 
L 344.496775 260.544 
L 344.537854 262.599529 
L 344.589322 264.655059 
L 344.652392 266.710588 
L 344.72794 268.766118 
L 344.816332 270.821647 
L 344.917258 272.877176 
L 345.029584 274.932706 
L 345.151253 276.988235 
L 345.279257 279.043765 
L 345.409694 281.099294 
L 345.537919 283.154824 
L 345.658789 285.210353 
L 345.766996 287.265882 
L 345.857439 289.321412 
L 345.925625 291.376941 
L 345.968036 293.432471 
L 345.98243 295.488 
z
" clip-path="url(#p2bdddcd723)" style="fill: #1f77b4; fill-opacity: 0.3"/>
   </g>
   <g id="matplotlib.axis_1">
    <g id="xtick_1">
     <g id="line2d_1">
      <path d="M 127.941818 307.584 
L 127.941818 41.472 
" clip-path="url(#p2bdddcd723)" style="fill: none; stroke: #b0b0b0; stroke-width: 0.8; stroke-linecap: square"/>
     </g>
     <g id="line2d_2">
      <defs>
       <path id="m175bc5b0e6" d="M 0 0 
L 0 3.5 
" style="stroke: #000000; stroke-width: 0.8"/>
      </defs>
      <g>
       <use xlink:href="#m175bc5b0e6" x="127.941818" y="307.584" style="stroke: #000000; stroke-width: 0.8"/>
      </g>
     </g>
     <g id="text_1">
      <!-- Best -->
      <g transform="translate(116.869943 322.182437) scale(0.1 -0.1)">
       <defs>
        <path id="DejaVuSans-42" d="M 1259 2228 
L 1259 519 
L 2272 519 
Q 2781 519 3026 730 
Q 3272 941 3272 1375 
Q 3272 1813 3026 2020 
Q 2781 2228 2272 2228 
L 1259 2228 
z
M 1259 4147 
L 1259 2741 
L 2194 2741 
Q 2656 2741 2882 2914 
Q 3109 3088 3109 3444 
Q 3109 3797 2882 3972 
Q 2656 4147 2194 4147 
L 1259 4147 
z
M 628 4666 
L 2241 4666 
Q 2963 4666 3353 4366 
Q 3744 4066 3744 3513 
Q 3744 3084 3544 2831 
Q 3344 2578 2956 2516 
Q 3422 2416 3680 2098 
Q 3938 1781 3938 1306 
Q 3938 681 3513 340 
Q 3088 0 2303 0 
L 628 0 
L 628 4666 
z
" transform="scale(0.015625)"/>
        <path id="DejaVuSans-65" d="M 3597 1894 
L 3597 1613 
L 953 1613 
Q 991 1019 1311 708 
Q 1631 397 2203 397 
Q 2534 397 2845 478 
Q 3156 559 3463 722 
L 3463 178 
Q 3153 47 2828 -22 
Q 2503 -91 2169 -91 
Q 1331 -91 842 396 
Q 353 884 353 1716 
Q 353 2575 817 3079 
Q 1281 3584 2069 3584 
Q 2775 3584 3186 3129 
Q 3597 2675 3597 1894 
z
M 3022 2063 
Q 3016 2534 2758 2815 
Q 2500 3097 2075 3097 
Q 1594 3097 1305 2825 
Q 1016 2553 972 2059 
L 3022 2063 
z
" transform="scale(0.015625)"/>
        <path id="DejaVuSans-73" d="M 2834 3397 
L 2834 2853 
Q 2591 2978 2328 3040 
Q 2066 3103 1784 3103 
Q 1356 3103 1142 2972 
Q 928 2841 928 2578 
Q 928 2378 1081 2264 
Q 1234 2150 1697 2047 
L 1894 2003 
Q 2506 1872 2764 1633 
Q 3022 1394 3022 966 
Q 3022 478 2636 193 
Q 2250 -91 1575 -91 
Q 1294 -91 989 -36 
Q 684 19 347 128 
L 347 722 
Q 666 556 975 473 
Q 1284 391 1588 391 
Q 1994 391 2212 530 
Q 2431 669 2431 922 
Q 2431 1156 2273 1281 
Q 2116 1406 1581 1522 
L 1381 1569 
Q 847 1681 609 1914 
Q 372 2147 372 2553 
Q 372 3047 722 3315 
Q 1072 3584 1716 3584 
Q 2034 3584 2315 3537 
Q 2597 3491 2834 3397 
z
" transform="scale(0.015625)"/>
        <path id="DejaVuSans-74" d="M 1172 4494 
L 1172 3500 
L 2356 3500 
L 2356 3053 
L 1172 3053 
L 1172 1153 
Q 1172 725 1289 603 
Q 1406 481 1766 481 
L 2356 481 
L 2356 0 
L 1766 0 
Q 1100 0 847 248 
Q 594 497 594 1153 
L 594 3053 
L 172 3053 
L 172 3500 
L 594 3500 
L 594 4494 
L 1172 4494 
z
" transform="scale(0.015625)"/>
       </defs>
       <use xlink:href="#DejaVuSans-42"/>
       <use xlink:href="#DejaVuSans-65" x="68.603516"/>
       <use xlink:href="#DejaVuSans-73" x="130.126953"/>
       <use xlink:href="#DejaVuSans-74" x="182.226562"/>
      </g>
     </g>
    </g>
    <g id="xtick_2">
     <g id="line2d_3">
      <path d="M 344.378182 307.584 
L 344.378182 41.472 
" clip-path="url(#p2bdddcd723)" style="fill: none; stroke: #b0b0b0; stroke-width: 0.8; stroke-linecap: square"/>
     </g>
     <g id="line2d_4">
      <g>
       <use xlink:href="#m175bc5b0e6" x="344.378182" y="307.584" style="stroke: #000000; stroke-width: 0.8"/>
      </g>
     </g>
     <g id="text_2">
      <!-- Worst -->
      <g transform="translate(330.048494 322.182437) scale(0.1 -0.1)">
       <defs>
        <path id="DejaVuSans-57" d="M 213 4666 
L 850 4666 
L 1831 722 
L 2809 4666 
L 3519 4666 
L 4500 722 
L 5478 4666 
L 6119 4666 
L 4947 0 
L 4153 0 
L 3169 4050 
L 2175 0 
L 1381 0 
L 213 4666 
z
" transform="scale(0.015625)"/>
        <path id="DejaVuSans-6f" d="M 1959 3097 
Q 1497 3097 1228 2736 
Q 959 2375 959 1747 
Q 959 1119 1226 758 
Q 1494 397 1959 397 
Q 2419 397 2687 759 
Q 2956 1122 2956 1747 
Q 2956 2369 2687 2733 
Q 2419 3097 1959 3097 
z
M 1959 3584 
Q 2709 3584 3137 3096 
Q 3566 2609 3566 1747 
Q 3566 888 3137 398 
Q 2709 -91 1959 -91 
Q 1206 -91 779 398 
Q 353 888 353 1747 
Q 353 2609 779 3096 
Q 1206 3584 1959 3584 
z
" transform="scale(0.015625)"/>
        <path id="DejaVuSans-72" d="M 2631 2963 
Q 2534 3019 2420 3045 
Q 2306 3072 2169 3072 
Q 1681 3072 1420 2755 
Q 1159 2438 1159 1844 
L 1159 0 
L 581 0 
L 581 3500 
L 1159 3500 
L 1159 2956 
Q 1341 3275 1631 3429 
Q 1922 3584 2338 3584 
Q 2397 3584 2469 3576 
Q 2541 3569 2628 3553 
L 2631 2963 
z
" transform="scale(0.015625)"/>
       </defs>
       <use xlink:href="#DejaVuSans-57"/>
       <use xlink:href="#DejaVuSans-6f" x="93.001953"/>
       <use xlink:href="#DejaVuSans-72" x="154.183594"/>
       <use xlink:href="#DejaVuSans-73" x="195.296875"/>
       <use xlink:href="#DejaVuSans-74" x="247.396484"/>
      </g>
     </g>
    </g>
    <g id="text_3">
     <!-- Distribution -->
     <g transform="translate(206.99125 335.860562) scale(0.1 -0.1)">
      <defs>
       <path id="DejaVuSans-44" d="M 1259 4147 
L 1259 519 
L 2022 519 
Q 2988 519 3436 956 
Q 3884 1394 3884 2338 
Q 3884 3275 3436 3711 
Q 2988 4147 2022 4147 
L 1259 4147 
z
M 628 4666 
L 1925 4666 
Q 3281 4666 3915 4102 
Q 4550 3538 4550 2338 
Q 4550 1131 3912 565 
Q 3275 0 1925 0 
L 628 0 
L 628 4666 
z
" transform="scale(0.015625)"/>
       <path id="DejaVuSans-69" d="M 603 3500 
L 1178 3500 
L 1178 0 
L 603 0 
L 603 3500 
z
M 603 4863 
L 1178 4863 
L 1178 4134 
L 603 4134 
L 603 4863 
z
" transform="scale(0.015625)"/>
       <path id="DejaVuSans-62" d="M 3116 1747 
Q 3116 2381 2855 2742 
Q 2594 3103 2138 3103 
Q 1681 3103 1420 2742 
Q 1159 2381 1159 1747 
Q 1159 1113 1420 752 
Q 1681 391 2138 391 
Q 2594 391 2855 752 
Q 3116 1113 3116 1747 
z
M 1159 2969 
Q 1341 3281 1617 3432 
Q 1894 3584 2278 3584 
Q 2916 3584 3314 3078 
Q 3713 2572 3713 1747 
Q 3713 922 3314 415 
Q 2916 -91 2278 -91 
Q 1894 -91 1617 61 
Q 1341 213 1159 525 
L 1159 0 
L 581 0 
L 581 4863 
L 1159 4863 
L 1159 2969 
z
" transform="scale(0.015625)"/>
       <path id="DejaVuSans-75" d="M 544 1381 
L 544 3500 
L 1119 3500 
L 1119 1403 
Q 1119 906 1312 657 
Q 1506 409 1894 409 
Q 2359 409 2629 706 
Q 2900 1003 2900 1516 
L 2900 3500 
L 3475 3500 
L 3475 0 
L 2900 0 
L 2900 538 
Q 2691 219 2414 64 
Q 2138 -91 1772 -91 
Q 1169 -91 856 284 
Q 544 659 544 1381 
z
M 1991 3584 
L 1991 3584 
z
" transform="scale(0.015625)"/>
       <path id="DejaVuSans-6e" d="M 3513 2113 
L 3513 0 
L 2938 0 
L 2938 2094 
Q 2938 2591 2744 2837 
Q 2550 3084 2163 3084 
Q 1697 3084 1428 2787 
Q 1159 2491 1159 1978 
L 1159 0 
L 581 0 
L 581 3500 
L 1159 3500 
L 1159 2956 
Q 1366 3272 1645 3428 
Q 1925 3584 2291 3584 
Q 2894 3584 3203 3211 
Q 3513 2838 3513 2113 
z
" transform="scale(0.015625)"/>
      </defs>
      <use xlink:href="#DejaVuSans-44"/>
      <use xlink:href="#DejaVuSans-69" x="77.001953"/>
      <use xlink:href="#DejaVuSans-73" x="104.785156"/>
      <use xlink:href="#DejaVuSans-74" x="156.884766"/>
      <use xlink:href="#DejaVuSans-72" x="196.09375"/>
      <use xlink:href="#DejaVuSans-69" x="237.207031"/>
      <use xlink:href="#DejaVuSans-62" x="264.990234"/>
      <use xlink:href="#DejaVuSans-75" x="328.466797"/>
      <use xlink:href="#DejaVuSans-74" x="391.845703"/>
      <use xlink:href="#DejaVuSans-69" x="431.054688"/>
      <use xlink:href="#DejaVuSans-6f" x="458.837891"/>
      <use xlink:href="#DejaVuSans-6e" x="520.019531"/>
     </g>
    </g>
   </g>
   <g id="matplotlib.axis_2">
    <g id="ytick_1">
     <g id="line2d_5">
      <path d="M 57.6 296.911059 
L 414.72 296.911059 
" clip-path="url(#p2bdddcd723)" style="fill: none; stroke: #b0b0b0; stroke-width: 0.8; stroke-linecap: square"/>
     </g>
     <g id="line2d_6">
      <defs>
       <path id="mf305d835ab" d="M 0 0 
L -3.5 0 
" style="stroke: #000000; stroke-width: 0.8"/>
      </defs>
      <g>
       <use xlink:href="#mf305d835ab" x="57.6" y="296.911059" style="stroke: #000000; stroke-width: 0.8"/>
      </g>
     </g>
     <g id="text_4">
      <!-- 34.75 -->
      <g transform="translate(21.971875 300.710278) scale(0.1 -0.1)">
       <defs>
        <path id="DejaVuSans-33" d="M 2597 2516 
Q 3050 2419 3304 2112 
Q 3559 1806 3559 1356 
Q 3559 666 3084 287 
Q 2609 -91 1734 -91 
Q 1441 -91 1130 -33 
Q 819 25 488 141 
L 488 750 
Q 750 597 1062 519 
Q 1375 441 1716 441 
Q 2309 441 2620 675 
Q 2931 909 2931 1356 
Q 2931 1769 2642 2001 
Q 2353 2234 1838 2234 
L 1294 2234 
L 1294 2753 
L 1863 2753 
Q 2328 2753 2575 2939 
Q 2822 3125 2822 3475 
Q 2822 3834 2567 4026 
Q 2313 4219 1838 4219 
Q 1578 4219 1281 4162 
Q 984 4106 628 3988 
L 628 4550 
Q 988 4650 1302 4700 
Q 1616 4750 1894 4750 
Q 2613 4750 3031 4423 
Q 3450 4097 3450 3541 
Q 3450 3153 3228 2886 
Q 3006 2619 2597 2516 
z
" transform="scale(0.015625)"/>
        <path id="DejaVuSans-34" d="M 2419 4116 
L 825 1625 
L 2419 1625 
L 2419 4116 
z
M 2253 4666 
L 3047 4666 
L 3047 1625 
L 3713 1625 
L 3713 1100 
L 3047 1100 
L 3047 0 
L 2419 0 
L 2419 1100 
L 313 1100 
L 313 1709 
L 2253 4666 
z
" transform="scale(0.015625)"/>
        <path id="DejaVuSans-2e" d="M 684 794 
L 1344 794 
L 1344 0 
L 684 0 
L 684 794 
z
" transform="scale(0.015625)"/>
        <path id="DejaVuSans-37" d="M 525 4666 
L 3525 4666 
L 3525 4397 
L 1831 0 
L 1172 0 
L 2766 4134 
L 525 4134 
L 525 4666 
z
" transform="scale(0.015625)"/>
        <path id="DejaVuSans-35" d="M 691 4666 
L 3169 4666 
L 3169 4134 
L 1269 4134 
L 1269 2991 
Q 1406 3038 1543 3061 
Q 1681 3084 1819 3084 
Q 2600 3084 3056 2656 
Q 3513 2228 3513 1497 
Q 3513 744 3044 326 
Q 2575 -91 1722 -91 
Q 1428 -91 1123 -41 
Q 819 9 494 109 
L 494 744 
Q 775 591 1075 516 
Q 1375 441 1709 441 
Q 2250 441 2565 725 
Q 2881 1009 2881 1497 
Q 2881 1984 2565 2268 
Q 2250 2553 1709 2553 
Q 1456 2553 1204 2497 
Q 953 2441 691 2322 
L 691 4666 
z
" transform="scale(0.015625)"/>
       </defs>
       <use xlink:href="#DejaVuSans-33"/>
       <use xlink:href="#DejaVuSans-34" x="63.623047"/>
       <use xlink:href="#DejaVuSans-2e" x="127.246094"/>
       <use xlink:href="#DejaVuSans-37" x="159.033203"/>
       <use xlink:href="#DejaVuSans-35" x="222.65625"/>
      </g>
     </g>
    </g>
    <g id="ytick_2">
     <g id="line2d_7">
      <path d="M 57.6 261.334588 
L 414.72 261.334588 
" clip-path="url(#p2bdddcd723)" style="fill: none; stroke: #b0b0b0; stroke-width: 0.8; stroke-linecap: square"/>
     </g>
     <g id="line2d_8">
      <g>
       <use xlink:href="#mf305d835ab" x="57.6" y="261.334588" style="stroke: #000000; stroke-width: 0.8"/>
      </g>
     </g>
     <g id="text_5">
      <!-- 35.00 -->
      <g transform="translate(21.971875 265.133807) scale(0.1 -0.1)">
       <defs>
        <path id="DejaVuSans-30" d="M 2034 4250 
Q 1547 4250 1301 3770 
Q 1056 3291 1056 2328 
Q 1056 1369 1301 889 
Q 1547 409 2034 409 
Q 2525 409 2770 889 
Q 3016 1369 3016 2328 
Q 3016 3291 2770 3770 
Q 2525 4250 2034 4250 
z
M 2034 4750 
Q 2819 4750 3233 4129 
Q 3647 3509 3647 2328 
Q 3647 1150 3233 529 
Q 2819 -91 2034 -91 
Q 1250 -91 836 529 
Q 422 1150 422 2328 
Q 422 3509 836 4129 
Q 1250 4750 2034 4750 
z
" transform="scale(0.015625)"/>
       </defs>
       <use xlink:href="#DejaVuSans-33"/>
       <use xlink:href="#DejaVuSans-35" x="63.623047"/>
       <use xlink:href="#DejaVuSans-2e" x="127.246094"/>
       <use xlink:href="#DejaVuSans-30" x="159.033203"/>
       <use xlink:href="#DejaVuSans-30" x="222.65625"/>
      </g>
     </g>
    </g>
    <g id="ytick_3">
     <g id="line2d_9">
      <path d="M 57.6 225.758118 
L 414.72 225.758118 
" clip-path="url(#p2bdddcd723)" style="fill: none; stroke: #b0b0b0; stroke-width: 0.8; stroke-linecap: square"/>
     </g>
     <g id="line2d_10">
      <g>
       <use xlink:href="#mf305d835ab" x="57.6" y="225.758118" style="stroke: #000000; stroke-width: 0.8"/>
      </g>
     </g>
     <g id="text_6">
      <!-- 35.25 -->
      <g transform="translate(21.971875 229.557336) scale(0.1 -0.1)">
       <defs>
        <path id="DejaVuSans-32" d="M 1228 531 
L 3431 531 
L 3431 0 
L 469 0 
L 469 531 
Q 828 903 1448 1529 
Q 2069 2156 2228 2338 
Q 2531 2678 2651 2914 
Q 2772 3150 2772 3378 
Q 2772 3750 2511 3984 
Q 2250 4219 1831 4219 
Q 1534 4219 1204 4116 
Q 875 4013 500 3803 
L 500 4441 
Q 881 4594 1212 4672 
Q 1544 4750 1819 4750 
Q 2544 4750 2975 4387 
Q 3406 4025 3406 3419 
Q 3406 3131 3298 2873 
Q 3191 2616 2906 2266 
Q 2828 2175 2409 1742 
Q 1991 1309 1228 531 
z
" transform="scale(0.015625)"/>
       </defs>
       <use xlink:href="#DejaVuSans-33"/>
       <use xlink:href="#DejaVuSans-35" x="63.623047"/>
       <use xlink:href="#DejaVuSans-2e" x="127.246094"/>
       <use xlink:href="#DejaVuSans-32" x="159.033203"/>
       <use xlink:href="#DejaVuSans-35" x="222.65625"/>
      </g>
     </g>
    </g>
    <g id="ytick_4">
     <g id="line2d_11">
      <path d="M 57.6 190.181647 
L 414.72 190.181647 
" clip-path="url(#p2bdddcd723)" style="fill: none; stroke: #b0b0b0; stroke-width: 0.8; stroke-linecap: square"/>
     </g>
     <g id="line2d_12">
      <g>
       <use xlink:href="#mf305d835ab" x="57.6" y="190.181647" style="stroke: #000000; stroke-width: 0.8"/>
      </g>
     </g>
     <g id="text_7">
      <!-- 35.50 -->
      <g transform="translate(21.971875 193.980866) scale(0.1 -0.1)">
       <use xlink:href="#DejaVuSans-33"/>
       <use xlink:href="#DejaVuSans-35" x="63.623047"/>
       <use xlink:href="#DejaVuSans-2e" x="127.246094"/>
       <use xlink:href="#DejaVuSans-35" x="159.033203"/>
       <use xlink:href="#DejaVuSans-30" x="222.65625"/>
      </g>
     </g>
    </g>
    <g id="ytick_5">
     <g id="line2d_13">
      <path d="M 57.6 154.605176 
L 414.72 154.605176 
" clip-path="url(#p2bdddcd723)" style="fill: none; stroke: #b0b0b0; stroke-width: 0.8; stroke-linecap: square"/>
     </g>
     <g id="line2d_14">
      <g>
       <use xlink:href="#mf305d835ab" x="57.6" y="154.605176" style="stroke: #000000; stroke-width: 0.8"/>
      </g>
     </g>
     <g id="text_8">
      <!-- 35.75 -->
      <g transform="translate(21.971875 158.404395) scale(0.1 -0.1)">
       <use xlink:href="#DejaVuSans-33"/>
       <use xlink:href="#DejaVuSans-35" x="63.623047"/>
       <use xlink:href="#DejaVuSans-2e" x="127.246094"/>
       <use xlink:href="#DejaVuSans-37" x="159.033203"/>
       <use xlink:href="#DejaVuSans-35" x="222.65625"/>
      </g>
     </g>
    </g>
    <g id="ytick_6">
     <g id="line2d_15">
      <path d="M 57.6 119.028706 
L 414.72 119.028706 
" clip-path="url(#p2bdddcd723)" style="fill: none; stroke: #b0b0b0; stroke-width: 0.8; stroke-linecap: square"/>
     </g>
     <g id="line2d_16">
      <g>
       <use xlink:href="#mf305d835ab" x="57.6" y="119.028706" style="stroke: #000000; stroke-width: 0.8"/>
      </g>
     </g>
     <g id="text_9">
      <!-- 36.00 -->
      <g transform="translate(21.971875 122.827925) scale(0.1 -0.1)">
       <defs>
        <path id="DejaVuSans-36" d="M 2113 2584 
Q 1688 2584 1439 2293 
Q 1191 2003 1191 1497 
Q 1191 994 1439 701 
Q 1688 409 2113 409 
Q 2538 409 2786 701 
Q 3034 994 3034 1497 
Q 3034 2003 2786 2293 
Q 2538 2584 2113 2584 
z
M 3366 4563 
L 3366 3988 
Q 3128 4100 2886 4159 
Q 2644 4219 2406 4219 
Q 1781 4219 1451 3797 
Q 1122 3375 1075 2522 
Q 1259 2794 1537 2939 
Q 1816 3084 2150 3084 
Q 2853 3084 3261 2657 
Q 3669 2231 3669 1497 
Q 3669 778 3244 343 
Q 2819 -91 2113 -91 
Q 1303 -91 875 529 
Q 447 1150 447 2328 
Q 447 3434 972 4092 
Q 1497 4750 2381 4750 
Q 2619 4750 2861 4703 
Q 3103 4656 3366 4563 
z
" transform="scale(0.015625)"/>
       </defs>
       <use xlink:href="#DejaVuSans-33"/>
       <use xlink:href="#DejaVuSans-36" x="63.623047"/>
       <use xlink:href="#DejaVuSans-2e" x="127.246094"/>
       <use xlink:href="#DejaVuSans-30" x="159.033203"/>
       <use xlink:href="#DejaVuSans-30" x="222.65625"/>
      </g>
     </g>
    </g>
    <g id="ytick_7">
     <g id="line2d_17">
      <path d="M 57.6 83.452235 
L 414.72 83.452235 
" clip-path="url(#p2bdddcd723)" style="fill: none; stroke: #b0b0b0; stroke-width: 0.8; stroke-linecap: square"/>
     </g>
     <g id="line2d_18">
      <g>
       <use xlink:href="#mf305d835ab" x="57.6" y="83.452235" style="stroke: #000000; stroke-width: 0.8"/>
      </g>
     </g>
     <g id="text_10">
      <!-- 36.25 -->
      <g transform="translate(21.971875 87.251454) scale(0.1 -0.1)">
       <use xlink:href="#DejaVuSans-33"/>
       <use xlink:href="#DejaVuSans-36" x="63.623047"/>
       <use xlink:href="#DejaVuSans-2e" x="127.246094"/>
       <use xlink:href="#DejaVuSans-32" x="159.033203"/>
       <use xlink:href="#DejaVuSans-35" x="222.65625"/>
      </g>
     </g>
    </g>
    <g id="ytick_8">
     <g id="line2d_19">
      <path d="M 57.6 47.875765 
L 414.72 47.875765 
" clip-path="url(#p2bdddcd723)" style="fill: none; stroke: #b0b0b0; stroke-width: 0.8; stroke-linecap: square"/>
     </g>
     <g id="line2d_20">
      <g>
       <use xlink:href="#mf305d835ab" x="57.6" y="47.875765" style="stroke: #000000; stroke-width: 0.8"/>
      </g>
     </g>
     <g id="text_11">
      <!-- 36.50 -->
      <g transform="translate(21.971875 51.674983) scale(0.1 -0.1)">
       <use xlink:href="#DejaVuSans-33"/>
       <use xlink:href="#DejaVuSans-36" x="63.623047"/>
       <use xlink:href="#DejaVuSans-2e" x="127.246094"/>
       <use xlink:href="#DejaVuSans-35" x="159.033203"/>
       <use xlink:href="#DejaVuSans-30" x="222.65625"/>
      </g>
     </g>
    </g>
    <g id="text_12">
     <!-- BLEU Scores -->
     <g transform="translate(15.892187 205.75925) rotate(-90) scale(0.1 -0.1)">
      <defs>
       <path id="DejaVuSans-4c" d="M 628 4666 
L 1259 4666 
L 1259 531 
L 3531 531 
L 3531 0 
L 628 0 
L 628 4666 
z
" transform="scale(0.015625)"/>
       <path id="DejaVuSans-45" d="M 628 4666 
L 3578 4666 
L 3578 4134 
L 1259 4134 
L 1259 2753 
L 3481 2753 
L 3481 2222 
L 1259 2222 
L 1259 531 
L 3634 531 
L 3634 0 
L 628 0 
L 628 4666 
z
" transform="scale(0.015625)"/>
       <path id="DejaVuSans-55" d="M 556 4666 
L 1191 4666 
L 1191 1831 
Q 1191 1081 1462 751 
Q 1734 422 2344 422 
Q 2950 422 3222 751 
Q 3494 1081 3494 1831 
L 3494 4666 
L 4128 4666 
L 4128 1753 
Q 4128 841 3676 375 
Q 3225 -91 2344 -91 
Q 1459 -91 1007 375 
Q 556 841 556 1753 
L 556 4666 
z
" transform="scale(0.015625)"/>
       <path id="DejaVuSans-20" transform="scale(0.015625)"/>
       <path id="DejaVuSans-53" d="M 3425 4513 
L 3425 3897 
Q 3066 4069 2747 4153 
Q 2428 4238 2131 4238 
Q 1616 4238 1336 4038 
Q 1056 3838 1056 3469 
Q 1056 3159 1242 3001 
Q 1428 2844 1947 2747 
L 2328 2669 
Q 3034 2534 3370 2195 
Q 3706 1856 3706 1288 
Q 3706 609 3251 259 
Q 2797 -91 1919 -91 
Q 1588 -91 1214 -16 
Q 841 59 441 206 
L 441 856 
Q 825 641 1194 531 
Q 1563 422 1919 422 
Q 2459 422 2753 634 
Q 3047 847 3047 1241 
Q 3047 1584 2836 1778 
Q 2625 1972 2144 2069 
L 1759 2144 
Q 1053 2284 737 2584 
Q 422 2884 422 3419 
Q 422 4038 858 4394 
Q 1294 4750 2059 4750 
Q 2388 4750 2728 4690 
Q 3069 4631 3425 4513 
z
" transform="scale(0.015625)"/>
       <path id="DejaVuSans-63" d="M 3122 3366 
L 3122 2828 
Q 2878 2963 2633 3030 
Q 2388 3097 2138 3097 
Q 1578 3097 1268 2742 
Q 959 2388 959 1747 
Q 959 1106 1268 751 
Q 1578 397 2138 397 
Q 2388 397 2633 464 
Q 2878 531 3122 666 
L 3122 134 
Q 2881 22 2623 -34 
Q 2366 -91 2075 -91 
Q 1284 -91 818 406 
Q 353 903 353 1747 
Q 353 2603 823 3093 
Q 1294 3584 2113 3584 
Q 2378 3584 2631 3529 
Q 2884 3475 3122 3366 
z
" transform="scale(0.015625)"/>
      </defs>
      <use xlink:href="#DejaVuSans-42"/>
      <use xlink:href="#DejaVuSans-4c" x="68.603516"/>
      <use xlink:href="#DejaVuSans-45" x="124.316406"/>
      <use xlink:href="#DejaVuSans-55" x="187.5"/>
      <use xlink:href="#DejaVuSans-20" x="260.693359"/>
      <use xlink:href="#DejaVuSans-53" x="292.480469"/>
      <use xlink:href="#DejaVuSans-63" x="355.957031"/>
      <use xlink:href="#DejaVuSans-6f" x="410.9375"/>
      <use xlink:href="#DejaVuSans-72" x="472.119141"/>
      <use xlink:href="#DejaVuSans-65" x="510.982422"/>
      <use xlink:href="#DejaVuSans-73" x="572.505859"/>
     </g>
    </g>
   </g>
   <g id="LineCollection_1">
    <path d="M 100.887273 53.568 
L 154.996364 53.568 
" clip-path="url(#p2bdddcd723)" style="fill: none; stroke: #1f77b4; stroke-width: 1.5"/>
    <path d="M 317.323636 91.990588 
L 371.432727 91.990588 
" clip-path="url(#p2bdddcd723)" style="fill: none; stroke: #1f77b4; stroke-width: 1.5"/>
   </g>
   <g id="LineCollection_2">
    <path d="M 100.887273 91.990588 
L 154.996364 91.990588 
" clip-path="url(#p2bdddcd723)" style="fill: none; stroke: #1f77b4; stroke-width: 1.5"/>
    <path d="M 317.323636 295.488 
L 371.432727 295.488 
" clip-path="url(#p2bdddcd723)" style="fill: none; stroke: #1f77b4; stroke-width: 1.5"/>
   </g>
   <g id="LineCollection_3">
    <path d="M 127.941818 91.990588 
L 127.941818 53.568 
" clip-path="url(#p2bdddcd723)" style="fill: none; stroke: #1f77b4; stroke-width: 1.5"/>
    <path d="M 344.378182 295.488 
L 344.378182 91.990588 
" clip-path="url(#p2bdddcd723)" style="fill: none; stroke: #1f77b4; stroke-width: 1.5"/>
   </g>
   <g id="LineCollection_4">
    <path d="M 100.887273 82.029176 
L 154.996364 82.029176 
" clip-path="url(#p2bdddcd723)" style="fill: none; stroke: #1f77b4; stroke-width: 1.5"/>
    <path d="M 317.323636 101.952 
L 371.432727 101.952 
" clip-path="url(#p2bdddcd723)" style="fill: none; stroke: #1f77b4; stroke-width: 1.5"/>
   </g>
   <g id="patch_3">
    <path d="M 57.6 307.584 
L 57.6 41.472 
" style="fill: none; stroke: #000000; stroke-width: 0.8; stroke-linejoin: miter; stroke-linecap: square"/>
   </g>
   <g id="patch_4">
    <path d="M 414.72 307.584 
L 414.72 41.472 
" style="fill: none; stroke: #000000; stroke-width: 0.8; stroke-linejoin: miter; stroke-linecap: square"/>
   </g>
   <g id="patch_5">
    <path d="M 57.6 307.584 
L 414.72 307.584 
" style="fill: none; stroke: #000000; stroke-width: 0.8; stroke-linejoin: miter; stroke-linecap: square"/>
   </g>
   <g id="patch_6">
    <path d="M 57.6 41.472 
L 414.72 41.472 
" style="fill: none; stroke: #000000; stroke-width: 0.8; stroke-linejoin: miter; stroke-linecap: square"/>
   </g>
   <g id="text_13">
    <!-- Violin Plot of best and worst Distributions -->
    <g transform="translate(112.265625 35.472) scale(0.12 -0.12)">
     <defs>
      <path id="DejaVuSans-56" d="M 1831 0 
L 50 4666 
L 709 4666 
L 2188 738 
L 3669 4666 
L 4325 4666 
L 2547 0 
L 1831 0 
z
" transform="scale(0.015625)"/>
      <path id="DejaVuSans-6c" d="M 603 4863 
L 1178 4863 
L 1178 0 
L 603 0 
L 603 4863 
z
" transform="scale(0.015625)"/>
      <path id="DejaVuSans-50" d="M 1259 4147 
L 1259 2394 
L 2053 2394 
Q 2494 2394 2734 2622 
Q 2975 2850 2975 3272 
Q 2975 3691 2734 3919 
Q 2494 4147 2053 4147 
L 1259 4147 
z
M 628 4666 
L 2053 4666 
Q 2838 4666 3239 4311 
Q 3641 3956 3641 3272 
Q 3641 2581 3239 2228 
Q 2838 1875 2053 1875 
L 1259 1875 
L 1259 0 
L 628 0 
L 628 4666 
z
" transform="scale(0.015625)"/>
      <path id="DejaVuSans-66" d="M 2375 4863 
L 2375 4384 
L 1825 4384 
Q 1516 4384 1395 4259 
Q 1275 4134 1275 3809 
L 1275 3500 
L 2222 3500 
L 2222 3053 
L 1275 3053 
L 1275 0 
L 697 0 
L 697 3053 
L 147 3053 
L 147 3500 
L 697 3500 
L 697 3744 
Q 697 4328 969 4595 
Q 1241 4863 1831 4863 
L 2375 4863 
z
" transform="scale(0.015625)"/>
      <path id="DejaVuSans-61" d="M 2194 1759 
Q 1497 1759 1228 1600 
Q 959 1441 959 1056 
Q 959 750 1161 570 
Q 1363 391 1709 391 
Q 2188 391 2477 730 
Q 2766 1069 2766 1631 
L 2766 1759 
L 2194 1759 
z
M 3341 1997 
L 3341 0 
L 2766 0 
L 2766 531 
Q 2569 213 2275 61 
Q 1981 -91 1556 -91 
Q 1019 -91 701 211 
Q 384 513 384 1019 
Q 384 1609 779 1909 
Q 1175 2209 1959 2209 
L 2766 2209 
L 2766 2266 
Q 2766 2663 2505 2880 
Q 2244 3097 1772 3097 
Q 1472 3097 1187 3025 
Q 903 2953 641 2809 
L 641 3341 
Q 956 3463 1253 3523 
Q 1550 3584 1831 3584 
Q 2591 3584 2966 3190 
Q 3341 2797 3341 1997 
z
" transform="scale(0.015625)"/>
      <path id="DejaVuSans-64" d="M 2906 2969 
L 2906 4863 
L 3481 4863 
L 3481 0 
L 2906 0 
L 2906 525 
Q 2725 213 2448 61 
Q 2172 -91 1784 -91 
Q 1150 -91 751 415 
Q 353 922 353 1747 
Q 353 2572 751 3078 
Q 1150 3584 1784 3584 
Q 2172 3584 2448 3432 
Q 2725 3281 2906 2969 
z
M 947 1747 
Q 947 1113 1208 752 
Q 1469 391 1925 391 
Q 2381 391 2643 752 
Q 2906 1113 2906 1747 
Q 2906 2381 2643 2742 
Q 2381 3103 1925 3103 
Q 1469 3103 1208 2742 
Q 947 2381 947 1747 
z
" transform="scale(0.015625)"/>
      <path id="DejaVuSans-77" d="M 269 3500 
L 844 3500 
L 1563 769 
L 2278 3500 
L 2956 3500 
L 3675 769 
L 4391 3500 
L 4966 3500 
L 4050 0 
L 3372 0 
L 2619 2869 
L 1863 0 
L 1184 0 
L 269 3500 
z
" transform="scale(0.015625)"/>
     </defs>
     <use xlink:href="#DejaVuSans-56"/>
     <use xlink:href="#DejaVuSans-69" x="66.158203"/>
     <use xlink:href="#DejaVuSans-6f" x="93.941406"/>
     <use xlink:href="#DejaVuSans-6c" x="155.123047"/>
     <use xlink:href="#DejaVuSans-69" x="182.90625"/>
     <use xlink:href="#DejaVuSans-6e" x="210.689453"/>
     <use xlink:href="#DejaVuSans-20" x="274.068359"/>
     <use xlink:href="#DejaVuSans-50" x="305.855469"/>
     <use xlink:href="#DejaVuSans-6c" x="366.158203"/>
     <use xlink:href="#DejaVuSans-6f" x="393.941406"/>
     <use xlink:href="#DejaVuSans-74" x="455.123047"/>
     <use xlink:href="#DejaVuSans-20" x="494.332031"/>
     <use xlink:href="#DejaVuSans-6f" x="526.119141"/>
     <use xlink:href="#DejaVuSans-66" x="587.300781"/>
     <use xlink:href="#DejaVuSans-20" x="622.505859"/>
     <use xlink:href="#DejaVuSans-62" x="654.292969"/>
     <use xlink:href="#DejaVuSans-65" x="717.769531"/>
     <use xlink:href="#DejaVuSans-73" x="779.292969"/>
     <use xlink:href="#DejaVuSans-74" x="831.392578"/>
     <use xlink:href="#DejaVuSans-20" x="870.601562"/>
     <use xlink:href="#DejaVuSans-61" x="902.388672"/>
     <use xlink:href="#DejaVuSans-6e" x="963.667969"/>
     <use xlink:href="#DejaVuSans-64" x="1027.046875"/>
     <use xlink:href="#DejaVuSans-20" x="1090.523438"/>
     <use xlink:href="#DejaVuSans-77" x="1122.310547"/>
     <use xlink:href="#DejaVuSans-6f" x="1204.097656"/>
     <use xlink:href="#DejaVuSans-72" x="1265.279297"/>
     <use xlink:href="#DejaVuSans-73" x="1306.392578"/>
     <use xlink:href="#DejaVuSans-74" x="1358.492188"/>
     <use xlink:href="#DejaVuSans-20" x="1397.701172"/>
     <use xlink:href="#DejaVuSans-44" x="1429.488281"/>
     <use xlink:href="#DejaVuSans-69" x="1506.490234"/>
     <use xlink:href="#DejaVuSans-73" x="1534.273438"/>
     <use xlink:href="#DejaVuSans-74" x="1586.373047"/>
     <use xlink:href="#DejaVuSans-72" x="1625.582031"/>
     <use xlink:href="#DejaVuSans-69" x="1666.695312"/>
     <use xlink:href="#DejaVuSans-62" x="1694.478516"/>
     <use xlink:href="#DejaVuSans-75" x="1757.955078"/>
     <use xlink:href="#DejaVuSans-74" x="1821.333984"/>
     <use xlink:href="#DejaVuSans-69" x="1860.542969"/>
     <use xlink:href="#DejaVuSans-6f" x="1888.326172"/>
     <use xlink:href="#DejaVuSans-6e" x="1949.507812"/>
     <use xlink:href="#DejaVuSans-73" x="2012.886719"/>
    </g>
   </g>
  </g>
 </g>
 <defs>
  <clipPath id="p2bdddcd723">
   <rect x="57.6" y="41.472" width="357.12" height="266.112"/>
  </clipPath>
 </defs>
</svg>
