<?xml version="1.0" encoding="utf-8" standalone="no"?>
<!DOCTYPE svg PUBLIC "-//W3C//DTD SVG 1.1//EN"
  "http://www.w3.org/Graphics/SVG/1.1/DTD/svg11.dtd">
<svg xmlns:xlink="http://www.w3.org/1999/xlink" width="460.8pt" height="345.6pt" viewBox="0 0 460.8 345.6" xmlns="http://www.w3.org/2000/svg" version="1.1">
 <metadata>
  <rdf:RDF xmlns:dc="http://purl.org/dc/elements/1.1/" xmlns:cc="http://creativecommons.org/ns#" xmlns:rdf="http://www.w3.org/1999/02/22-rdf-syntax-ns#">
   <cc:Work>
    <dc:type rdf:resource="http://purl.org/dc/dcmitype/StillImage"/>
    <dc:date>2023-06-23T18:49:58.506409</dc:date>
    <dc:format>image/svg+xml</dc:format>
    <dc:creator>
     <cc:Agent>
      <dc:title>Matplotlib v3.7.1, https://matplotlib.org/</dc:title>
     </cc:Agent>
    </dc:creator>
   </cc:Work>
  </rdf:RDF>
 </metadata>
 <defs>
  <style type="text/css">*{stroke-linejoin: round; stroke-linecap: butt}</style>
 </defs>
 <g id="figure_1">
  <g id="patch_1">
   <path d="M 0 345.6 
L 460.8 345.6 
L 460.8 0 
L 0 0 
z
" style="fill: #ffffff"/>
  </g>
  <g id="axes_1">
   <g id="patch_2">
    <path d="M 57.6 307.584 
L 414.72 307.584 
L 414.72 41.472 
L 57.6 41.472 
z
" style="fill: #ffffff"/>
   </g>
   <g id="PolyCollection_1">
    <defs>
     <path id="md80618f2f2" d="M 73.832727 -170.222535 
L 73.832727 -171.921465 
L 77.112066 -172.181195 
L 80.391405 -172.498736 
L 83.670744 -172.880258 
L 86.950083 -173.330793 
L 90.229421 -173.853755 
L 93.50876 -174.450493 
L 96.788099 -175.119909 
L 100.067438 -175.858183 
L 103.346777 -176.658609 
L 106.626116 -177.511566 
L 109.905455 -178.404625 
L 113.184793 -179.322762 
L 116.464132 -180.248688 
L 119.743471 -181.163266 
L 123.02281 -182.046005 
L 126.302149 -182.875659 
L 129.581488 -183.630912 
L 132.860826 -184.29119 
L 136.140165 -184.837595 
L 139.419504 -185.253973 
L 142.698843 -185.528086 
L 145.978182 -185.652827 
L 149.257521 -185.627415 
L 152.53686 -185.458444 
L 155.816198 -185.160693 
L 159.095537 -184.75755 
L 162.374876 -184.280992 
L 165.654215 -183.771027 
L 168.933554 -183.2746 
L 172.212893 -182.843987 
L 175.492231 -182.534744 
L 178.77157 -182.403335 
L 182.050909 -182.504574 
L 185.330248 -182.889033 
L 188.609587 -183.60059 
L 191.888926 -184.674242 
L 195.168264 -186.13435 
L 198.447603 -187.993408 
L 201.726942 -190.251423 
L 205.006281 -192.895953 
L 208.28562 -195.902799 
L 211.564959 -199.237314 
L 214.844298 -202.856227 
L 218.123636 -206.709856 
L 221.402975 -210.744547 
L 224.682314 -214.905156 
L 227.961653 -219.137409 
L 231.240992 -223.389983 
L 234.520331 -227.616218 
L 237.799669 -231.775379 
L 241.079008 -235.833476 
L 244.358347 -239.763646 
L 247.637686 -243.546148 
L 250.917025 -247.167982 
L 254.196364 -250.622169 
L 257.475702 -253.90666 
L 260.755041 -257.022856 
L 264.03438 -259.973717 
L 267.313719 -262.761478 
L 270.593058 -265.385069 
L 273.872397 -267.837406 
L 277.151736 -270.102835 
L 280.431074 -272.155078 
L 283.710413 -273.956063 
L 286.989752 -275.455965 
L 290.269091 -276.594711 
L 293.54843 -277.305015 
L 296.827769 -277.5168 
L 300.107107 -277.162683 
L 303.386446 -276.183968 
L 306.665785 -274.536539 
L 309.945124 -272.195965 
L 313.224463 -269.161243 
L 316.503802 -265.456735 
L 319.78314 -261.13208 
L 323.062479 -256.260112 
L 326.341818 -250.933039 
L 329.621157 -245.257313 
L 332.900496 -239.347748 
L 336.179835 -233.321457 
L 339.459174 -227.29215 
L 342.738512 -221.365222 
L 346.017851 -215.633913 
L 349.29719 -210.176685 
L 352.576529 -205.055799 
L 355.855868 -200.316992 
L 359.135207 -195.990054 
L 362.414545 -192.090086 
L 365.693884 -188.619212 
L 368.973223 -185.568559 
L 372.252562 -182.920323 
L 375.531901 -180.649809 
L 378.81124 -178.727368 
L 382.090579 -177.120156 
L 385.369917 -175.793707 
L 388.649256 -174.713285 
L 391.928595 -173.845001 
L 395.207934 -173.15672 
L 398.487273 -172.61873 
L 398.487273 -169.52527 
L 398.487273 -169.52527 
L 395.207934 -168.98728 
L 391.928595 -168.298999 
L 388.649256 -167.430715 
L 385.369917 -166.350293 
L 382.090579 -165.023844 
L 378.81124 -163.416632 
L 375.531901 -161.494191 
L 372.252562 -159.223677 
L 368.973223 -156.575441 
L 365.693884 -153.524788 
L 362.414545 -150.053914 
L 359.135207 -146.153946 
L 355.855868 -141.827008 
L 352.576529 -137.088201 
L 349.29719 -131.967315 
L 346.017851 -126.510087 
L 342.738512 -120.778778 
L 339.459174 -114.85185 
L 336.179835 -108.822543 
L 332.900496 -102.796252 
L 329.621157 -96.886687 
L 326.341818 -91.210961 
L 323.062479 -85.883888 
L 319.78314 -81.01192 
L 316.503802 -76.687265 
L 313.224463 -72.982757 
L 309.945124 -69.948035 
L 306.665785 -67.607461 
L 303.386446 -65.960032 
L 300.107107 -64.981317 
L 296.827769 -64.6272 
L 293.54843 -64.838985 
L 290.269091 -65.549289 
L 286.989752 -66.688035 
L 283.710413 -68.187937 
L 280.431074 -69.988922 
L 277.151736 -72.041165 
L 273.872397 -74.306594 
L 270.593058 -76.758931 
L 267.313719 -79.382522 
L 264.03438 -82.170283 
L 260.755041 -85.121144 
L 257.475702 -88.23734 
L 254.196364 -91.521831 
L 250.917025 -94.976018 
L 247.637686 -98.597852 
L 244.358347 -102.380354 
L 241.079008 -106.310524 
L 237.799669 -110.368621 
L 234.520331 -114.527782 
L 231.240992 -118.754017 
L 227.961653 -123.006591 
L 224.682314 -127.238844 
L 221.402975 -131.399453 
L 218.123636 -135.434144 
L 214.844298 -139.287773 
L 211.564959 -142.906686 
L 208.28562 -146.241201 
L 205.006281 -149.248047 
L 201.726942 -151.892577 
L 198.447603 -154.150592 
L 195.168264 -156.00965 
L 191.888926 -157.469758 
L 188.609587 -158.54341 
L 185.330248 -159.254967 
L 182.050909 -159.639426 
L 178.77157 -159.740665 
L 175.492231 -159.609256 
L 172.212893 -159.300013 
L 168.933554 -158.8694 
L 165.654215 -158.372973 
L 162.374876 -157.863008 
L 159.095537 -157.38645 
L 155.816198 -156.983307 
L 152.53686 -156.685556 
L 149.257521 -156.516585 
L 145.978182 -156.491173 
L 142.698843 -156.615914 
L 139.419504 -156.890027 
L 136.140165 -157.306405 
L 132.860826 -157.85281 
L 129.581488 -158.513088 
L 126.302149 -159.268341 
L 123.02281 -160.097995 
L 119.743471 -160.980734 
L 116.464132 -161.895312 
L 113.184793 -162.821238 
L 109.905455 -163.739375 
L 106.626116 -164.632434 
L 103.346777 -165.485391 
L 100.067438 -166.285817 
L 96.788099 -167.024091 
L 93.50876 -167.693507 
L 90.229421 -168.290245 
L 86.950083 -168.813207 
L 83.670744 -169.263742 
L 80.391405 -169.645264 
L 77.112066 -169.962805 
L 73.832727 -170.222535 
z
" style="stroke: #3f3f3f; stroke-width: 1.5"/>
    </defs>
    <g clip-path="url(#pc17af584be)">
     <use xlink:href="#md80618f2f2" x="0" y="345.6" style="fill: #3274a1; stroke: #3f3f3f; stroke-width: 1.5"/>
    </g>
   </g>
   <g id="matplotlib.axis_1">
    <g id="xtick_1">
     <g id="line2d_1">
      <defs>
       <path id="maf3956e474" d="M 0 0 
L 0 3.5 
" style="stroke: #000000; stroke-width: 0.8"/>
      </defs>
      <g>
       <use xlink:href="#maf3956e474" x="59.873334" y="307.584" style="stroke: #000000; stroke-width: 0.8"/>
      </g>
     </g>
     <g id="text_1">
      <!-- 83 -->
      <g transform="translate(53.510834 322.182437) scale(0.1 -0.1)">
       <defs>
        <path id="DejaVuSans-38" d="M 2034 2216 
Q 1584 2216 1326 1975 
Q 1069 1734 1069 1313 
Q 1069 891 1326 650 
Q 1584 409 2034 409 
Q 2484 409 2743 651 
Q 3003 894 3003 1313 
Q 3003 1734 2745 1975 
Q 2488 2216 2034 2216 
z
M 1403 2484 
Q 997 2584 770 2862 
Q 544 3141 544 3541 
Q 544 4100 942 4425 
Q 1341 4750 2034 4750 
Q 2731 4750 3128 4425 
Q 3525 4100 3525 3541 
Q 3525 3141 3298 2862 
Q 3072 2584 2669 2484 
Q 3125 2378 3379 2068 
Q 3634 1759 3634 1313 
Q 3634 634 3220 271 
Q 2806 -91 2034 -91 
Q 1263 -91 848 271 
Q 434 634 434 1313 
Q 434 1759 690 2068 
Q 947 2378 1403 2484 
z
M 1172 3481 
Q 1172 3119 1398 2916 
Q 1625 2713 2034 2713 
Q 2441 2713 2670 2916 
Q 2900 3119 2900 3481 
Q 2900 3844 2670 4047 
Q 2441 4250 2034 4250 
Q 1625 4250 1398 4047 
Q 1172 3844 1172 3481 
z
" transform="scale(0.015625)"/>
        <path id="DejaVuSans-33" d="M 2597 2516 
Q 3050 2419 3304 2112 
Q 3559 1806 3559 1356 
Q 3559 666 3084 287 
Q 2609 -91 1734 -91 
Q 1441 -91 1130 -33 
Q 819 25 488 141 
L 488 750 
Q 750 597 1062 519 
Q 1375 441 1716 441 
Q 2309 441 2620 675 
Q 2931 909 2931 1356 
Q 2931 1769 2642 2001 
Q 2353 2234 1838 2234 
L 1294 2234 
L 1294 2753 
L 1863 2753 
Q 2328 2753 2575 2939 
Q 2822 3125 2822 3475 
Q 2822 3834 2567 4026 
Q 2313 4219 1838 4219 
Q 1578 4219 1281 4162 
Q 984 4106 628 3988 
L 628 4550 
Q 988 4650 1302 4700 
Q 1616 4750 1894 4750 
Q 2613 4750 3031 4423 
Q 3450 4097 3450 3541 
Q 3450 3153 3228 2886 
Q 3006 2619 2597 2516 
z
" transform="scale(0.015625)"/>
       </defs>
       <use xlink:href="#DejaVuSans-38"/>
       <use xlink:href="#DejaVuSans-33" x="63.623047"/>
      </g>
     </g>
    </g>
    <g id="xtick_2">
     <g id="line2d_2">
      <g>
       <use xlink:href="#maf3956e474" x="103.597012" y="307.584" style="stroke: #000000; stroke-width: 0.8"/>
      </g>
     </g>
     <g id="text_2">
      <!-- 84 -->
      <g transform="translate(97.234512 322.182437) scale(0.1 -0.1)">
       <defs>
        <path id="DejaVuSans-34" d="M 2419 4116 
L 825 1625 
L 2419 1625 
L 2419 4116 
z
M 2253 4666 
L 3047 4666 
L 3047 1625 
L 3713 1625 
L 3713 1100 
L 3047 1100 
L 3047 0 
L 2419 0 
L 2419 1100 
L 313 1100 
L 313 1709 
L 2253 4666 
z
" transform="scale(0.015625)"/>
       </defs>
       <use xlink:href="#DejaVuSans-38"/>
       <use xlink:href="#DejaVuSans-34" x="63.623047"/>
      </g>
     </g>
    </g>
    <g id="xtick_3">
     <g id="line2d_3">
      <g>
       <use xlink:href="#maf3956e474" x="147.32069" y="307.584" style="stroke: #000000; stroke-width: 0.8"/>
      </g>
     </g>
     <g id="text_3">
      <!-- 85 -->
      <g transform="translate(140.95819 322.182437) scale(0.1 -0.1)">
       <defs>
        <path id="DejaVuSans-35" d="M 691 4666 
L 3169 4666 
L 3169 4134 
L 1269 4134 
L 1269 2991 
Q 1406 3038 1543 3061 
Q 1681 3084 1819 3084 
Q 2600 3084 3056 2656 
Q 3513 2228 3513 1497 
Q 3513 744 3044 326 
Q 2575 -91 1722 -91 
Q 1428 -91 1123 -41 
Q 819 9 494 109 
L 494 744 
Q 775 591 1075 516 
Q 1375 441 1709 441 
Q 2250 441 2565 725 
Q 2881 1009 2881 1497 
Q 2881 1984 2565 2268 
Q 2250 2553 1709 2553 
Q 1456 2553 1204 2497 
Q 953 2441 691 2322 
L 691 4666 
z
" transform="scale(0.015625)"/>
       </defs>
       <use xlink:href="#DejaVuSans-38"/>
       <use xlink:href="#DejaVuSans-35" x="63.623047"/>
      </g>
     </g>
    </g>
    <g id="xtick_4">
     <g id="line2d_4">
      <g>
       <use xlink:href="#maf3956e474" x="191.044369" y="307.584" style="stroke: #000000; stroke-width: 0.8"/>
      </g>
     </g>
     <g id="text_4">
      <!-- 86 -->
      <g transform="translate(184.681869 322.182437) scale(0.1 -0.1)">
       <defs>
        <path id="DejaVuSans-36" d="M 2113 2584 
Q 1688 2584 1439 2293 
Q 1191 2003 1191 1497 
Q 1191 994 1439 701 
Q 1688 409 2113 409 
Q 2538 409 2786 701 
Q 3034 994 3034 1497 
Q 3034 2003 2786 2293 
Q 2538 2584 2113 2584 
z
M 3366 4563 
L 3366 3988 
Q 3128 4100 2886 4159 
Q 2644 4219 2406 4219 
Q 1781 4219 1451 3797 
Q 1122 3375 1075 2522 
Q 1259 2794 1537 2939 
Q 1816 3084 2150 3084 
Q 2853 3084 3261 2657 
Q 3669 2231 3669 1497 
Q 3669 778 3244 343 
Q 2819 -91 2113 -91 
Q 1303 -91 875 529 
Q 447 1150 447 2328 
Q 447 3434 972 4092 
Q 1497 4750 2381 4750 
Q 2619 4750 2861 4703 
Q 3103 4656 3366 4563 
z
" transform="scale(0.015625)"/>
       </defs>
       <use xlink:href="#DejaVuSans-38"/>
       <use xlink:href="#DejaVuSans-36" x="63.623047"/>
      </g>
     </g>
    </g>
    <g id="xtick_5">
     <g id="line2d_5">
      <g>
       <use xlink:href="#maf3956e474" x="234.768047" y="307.584" style="stroke: #000000; stroke-width: 0.8"/>
      </g>
     </g>
     <g id="text_5">
      <!-- 87 -->
      <g transform="translate(228.405547 322.182437) scale(0.1 -0.1)">
       <defs>
        <path id="DejaVuSans-37" d="M 525 4666 
L 3525 4666 
L 3525 4397 
L 1831 0 
L 1172 0 
L 2766 4134 
L 525 4134 
L 525 4666 
z
" transform="scale(0.015625)"/>
       </defs>
       <use xlink:href="#DejaVuSans-38"/>
       <use xlink:href="#DejaVuSans-37" x="63.623047"/>
      </g>
     </g>
    </g>
    <g id="xtick_6">
     <g id="line2d_6">
      <g>
       <use xlink:href="#maf3956e474" x="278.491725" y="307.584" style="stroke: #000000; stroke-width: 0.8"/>
      </g>
     </g>
     <g id="text_6">
      <!-- 88 -->
      <g transform="translate(272.129225 322.182437) scale(0.1 -0.1)">
       <use xlink:href="#DejaVuSans-38"/>
       <use xlink:href="#DejaVuSans-38" x="63.623047"/>
      </g>
     </g>
    </g>
    <g id="xtick_7">
     <g id="line2d_7">
      <g>
       <use xlink:href="#maf3956e474" x="322.215403" y="307.584" style="stroke: #000000; stroke-width: 0.8"/>
      </g>
     </g>
     <g id="text_7">
      <!-- 89 -->
      <g transform="translate(315.852903 322.182437) scale(0.1 -0.1)">
       <defs>
        <path id="DejaVuSans-39" d="M 703 97 
L 703 672 
Q 941 559 1184 500 
Q 1428 441 1663 441 
Q 2288 441 2617 861 
Q 2947 1281 2994 2138 
Q 2813 1869 2534 1725 
Q 2256 1581 1919 1581 
Q 1219 1581 811 2004 
Q 403 2428 403 3163 
Q 403 3881 828 4315 
Q 1253 4750 1959 4750 
Q 2769 4750 3195 4129 
Q 3622 3509 3622 2328 
Q 3622 1225 3098 567 
Q 2575 -91 1691 -91 
Q 1453 -91 1209 -44 
Q 966 3 703 97 
z
M 1959 2075 
Q 2384 2075 2632 2365 
Q 2881 2656 2881 3163 
Q 2881 3666 2632 3958 
Q 2384 4250 1959 4250 
Q 1534 4250 1286 3958 
Q 1038 3666 1038 3163 
Q 1038 2656 1286 2365 
Q 1534 2075 1959 2075 
z
" transform="scale(0.015625)"/>
       </defs>
       <use xlink:href="#DejaVuSans-38"/>
       <use xlink:href="#DejaVuSans-39" x="63.623047"/>
      </g>
     </g>
    </g>
    <g id="xtick_8">
     <g id="line2d_8">
      <g>
       <use xlink:href="#maf3956e474" x="365.939082" y="307.584" style="stroke: #000000; stroke-width: 0.8"/>
      </g>
     </g>
     <g id="text_8">
      <!-- 90 -->
      <g transform="translate(359.576582 322.182437) scale(0.1 -0.1)">
       <defs>
        <path id="DejaVuSans-30" d="M 2034 4250 
Q 1547 4250 1301 3770 
Q 1056 3291 1056 2328 
Q 1056 1369 1301 889 
Q 1547 409 2034 409 
Q 2525 409 2770 889 
Q 3016 1369 3016 2328 
Q 3016 3291 2770 3770 
Q 2525 4250 2034 4250 
z
M 2034 4750 
Q 2819 4750 3233 4129 
Q 3647 3509 3647 2328 
Q 3647 1150 3233 529 
Q 2819 -91 2034 -91 
Q 1250 -91 836 529 
Q 422 1150 422 2328 
Q 422 3509 836 4129 
Q 1250 4750 2034 4750 
z
" transform="scale(0.015625)"/>
       </defs>
       <use xlink:href="#DejaVuSans-39"/>
       <use xlink:href="#DejaVuSans-30" x="63.623047"/>
      </g>
     </g>
    </g>
    <g id="xtick_9">
     <g id="line2d_9">
      <g>
       <use xlink:href="#maf3956e474" x="409.66276" y="307.584" style="stroke: #000000; stroke-width: 0.8"/>
      </g>
     </g>
     <g id="text_9">
      <!-- 91 -->
      <g transform="translate(403.30026 322.182437) scale(0.1 -0.1)">
       <defs>
        <path id="DejaVuSans-31" d="M 794 531 
L 1825 531 
L 1825 4091 
L 703 3866 
L 703 4441 
L 1819 4666 
L 2450 4666 
L 2450 531 
L 3481 531 
L 3481 0 
L 794 0 
L 794 531 
z
" transform="scale(0.015625)"/>
       </defs>
       <use xlink:href="#DejaVuSans-39"/>
       <use xlink:href="#DejaVuSans-31" x="63.623047"/>
      </g>
     </g>
    </g>
   </g>
   <g id="matplotlib.axis_2">
    <g id="ytick_1">
     <g id="line2d_10">
      <defs>
       <path id="m22e7e40186" d="M 0 0 
L -3.5 0 
" style="stroke: #000000; stroke-width: 0.8"/>
      </defs>
      <g>
       <use xlink:href="#m22e7e40186" x="57.6" y="174.528" style="stroke: #000000; stroke-width: 0.8"/>
      </g>
     </g>
    </g>
   </g>
   <g id="line2d_11">
    <path d="M 250.72296 99.192978 
L 250.72296 249.863022 
" clip-path="url(#pc17af584be)" style="fill: none; stroke-dasharray: 3.375,3.375; stroke-dashoffset: 0; stroke: #3f3f3f; stroke-width: 1.5"/>
   </g>
   <g id="line2d_12">
    <path d="M 283.295156 72.672777 
L 283.295156 276.383223 
" clip-path="url(#pc17af584be)" style="fill: none; stroke-dasharray: 6.75,6.75; stroke-dashoffset: 0; stroke: #3f3f3f; stroke-width: 1.5"/>
   </g>
   <g id="line2d_13">
    <path d="M 308.276281 72.098107 
L 308.276281 276.957893 
" clip-path="url(#pc17af584be)" style="fill: none; stroke-dasharray: 3.375,3.375; stroke-dashoffset: 0; stroke: #3f3f3f; stroke-width: 1.5"/>
   </g>
   <g id="patch_3">
    <path d="M 57.6 307.584 
L 57.6 41.472 
" style="fill: none; stroke: #000000; stroke-width: 0.8; stroke-linejoin: miter; stroke-linecap: square"/>
   </g>
   <g id="patch_4">
    <path d="M 414.72 307.584 
L 414.72 41.472 
" style="fill: none; stroke: #000000; stroke-width: 0.8; stroke-linejoin: miter; stroke-linecap: square"/>
   </g>
   <g id="patch_5">
    <path d="M 57.6 307.584 
L 414.72 307.584 
" style="fill: none; stroke: #000000; stroke-width: 0.8; stroke-linejoin: miter; stroke-linecap: square"/>
   </g>
   <g id="patch_6">
    <path d="M 57.6 41.472 
L 414.72 41.472 
" style="fill: none; stroke: #000000; stroke-width: 0.8; stroke-linejoin: miter; stroke-linecap: square"/>
   </g>
   <g id="legend_1">
    <g id="patch_7">
     <path d="M 403.72 54.472 
L 407.72 54.472 
Q 409.72 54.472 409.72 52.472 
L 409.72 48.472 
Q 409.72 46.472 407.72 46.472 
L 403.72 46.472 
Q 401.72 46.472 401.72 48.472 
L 401.72 52.472 
Q 401.72 54.472 403.72 54.472 
z
" style="fill: #ffffff; opacity: 0.8; stroke: #cccccc; stroke-linejoin: miter"/>
    </g>
   </g>
  </g>
 </g>
 <defs>
  <clipPath id="pc17af584be">
   <rect x="57.6" y="41.472" width="357.12" height="266.112"/>
  </clipPath>
 </defs>
</svg>
