<?xml version="1.0" encoding="utf-8" standalone="no"?>
<!DOCTYPE svg PUBLIC "-//W3C//DTD SVG 1.1//EN"
  "http://www.w3.org/Graphics/SVG/1.1/DTD/svg11.dtd">
<svg xmlns:xlink="http://www.w3.org/1999/xlink" width="460.8pt" height="345.6pt" viewBox="0 0 460.8 345.6" xmlns="http://www.w3.org/2000/svg" version="1.1">
 <metadata>
  <rdf:RDF xmlns:dc="http://purl.org/dc/elements/1.1/" xmlns:cc="http://creativecommons.org/ns#" xmlns:rdf="http://www.w3.org/1999/02/22-rdf-syntax-ns#">
   <cc:Work>
    <dc:type rdf:resource="http://purl.org/dc/dcmitype/StillImage"/>
    <dc:date>2023-06-23T19:02:08.672077</dc:date>
    <dc:format>image/svg+xml</dc:format>
    <dc:creator>
     <cc:Agent>
      <dc:title>Matplotlib v3.7.1, https://matplotlib.org/</dc:title>
     </cc:Agent>
    </dc:creator>
   </cc:Work>
  </rdf:RDF>
 </metadata>
 <defs>
  <style type="text/css">*{stroke-linejoin: round; stroke-linecap: butt}</style>
 </defs>
 <g id="figure_1">
  <g id="patch_1">
   <path d="M 0 345.6 
L 460.8 345.6 
L 460.8 0 
L 0 0 
z
" style="fill: #ffffff"/>
  </g>
  <g id="axes_1">
   <g id="patch_2">
    <path d="M 57.6 307.584 
L 414.72 307.584 
L 414.72 41.472 
L 57.6 41.472 
z
" style="fill: #ffffff"/>
   </g>
   <g id="PolyCollection_1">
    <path d="M 136.932279 295.488 
L 118.951357 295.488 
L 118.650972 293.83416 
L 118.362751 292.18032 
L 118.088335 290.52648 
L 117.829319 288.87264 
L 117.587238 287.2188 
L 117.363552 285.56496 
L 117.159624 283.91112 
L 116.976702 282.25728 
L 116.815901 280.60344 
L 116.678181 278.9496 
L 116.564326 277.29576 
L 116.474926 275.64192 
L 116.410356 273.98808 
L 116.370758 272.33424 
L 116.356022 270.6804 
L 116.365772 269.02656 
L 116.39935 267.37272 
L 116.455804 265.718879 
L 116.53388 264.065039 
L 116.632017 262.411199 
L 116.748343 260.757359 
L 116.880675 259.103519 
L 117.026528 257.449679 
L 117.18312 255.795839 
L 117.347388 254.141999 
L 117.516004 252.488159 
L 117.685398 250.834319 
L 117.851781 249.180479 
L 118.011177 247.526639 
L 118.159451 245.872799 
L 118.292352 244.218959 
L 118.405541 242.565119 
L 118.494642 240.911279 
L 118.555275 239.257439 
L 118.583105 237.603599 
L 118.573884 235.949759 
L 118.523493 234.295919 
L 118.427989 232.642079 
L 118.283643 230.988239 
L 118.086986 229.334399 
L 117.834841 227.680559 
L 117.524366 226.026719 
L 117.153082 224.372879 
L 116.718903 222.719039 
L 116.220166 221.065199 
L 115.655649 219.411359 
L 115.024588 217.757519 
L 114.326693 216.103679 
L 113.562156 214.449839 
L 112.731654 212.795999 
L 111.836348 211.142159 
L 110.87788 209.488318 
L 109.858366 207.834478 
L 108.780377 206.180638 
L 107.646931 204.526798 
L 106.461466 202.872958 
L 105.227825 201.219118 
L 103.950224 199.565278 
L 102.633233 197.911438 
L 101.281746 196.257598 
L 99.90095 194.603758 
L 98.496301 192.949918 
L 97.073493 191.296078 
L 95.63843 189.642238 
L 94.197198 187.988398 
L 92.756041 186.334558 
L 91.32133 184.680718 
L 89.899541 183.026878 
L 88.497232 181.373038 
L 87.121015 179.719198 
L 85.777534 178.065358 
L 84.47344 176.411518 
L 83.215366 174.757678 
L 82.009901 173.103838 
L 80.86356 171.449998 
L 79.782754 169.796158 
L 78.773757 168.142318 
L 77.84267 166.488478 
L 76.99538 164.834638 
L 76.237516 163.180798 
L 75.574404 161.526958 
L 75.011018 159.873118 
L 74.551929 158.219278 
L 74.201246 156.565438 
L 73.962569 154.911598 
L 73.838926 153.257757 
L 73.832727 151.603917 
L 73.94571 149.950077 
L 74.178892 148.296237 
L 74.532532 146.642397 
L 75.006092 144.988557 
L 75.598214 143.334717 
L 76.306703 141.680877 
L 77.128515 140.027037 
L 78.059771 138.373197 
L 79.095766 136.719357 
L 80.231004 135.065517 
L 81.459235 133.411677 
L 82.773514 131.757837 
L 173.110123 131.757837 
L 173.110123 131.757837 
L 174.424401 133.411677 
L 175.652632 135.065517 
L 176.78787 136.719357 
L 177.823865 138.373197 
L 178.755121 140.027037 
L 179.576934 141.680877 
L 180.285422 143.334717 
L 180.877545 144.988557 
L 181.351105 146.642397 
L 181.704744 148.296237 
L 181.937926 149.950077 
L 182.050909 151.603917 
L 182.04471 153.257757 
L 181.921068 154.911598 
L 181.68239 156.565438 
L 181.331707 158.219278 
L 180.872618 159.873118 
L 180.309233 161.526958 
L 179.646121 163.180798 
L 178.888256 164.834638 
L 178.040966 166.488478 
L 177.109879 168.142318 
L 176.100883 169.796158 
L 175.020077 171.449998 
L 173.873736 173.103838 
L 172.66827 174.757678 
L 171.410197 176.411518 
L 170.106103 178.065358 
L 168.762621 179.719198 
L 167.386404 181.373038 
L 165.984095 183.026878 
L 164.562307 184.680718 
L 163.127595 186.334558 
L 161.686438 187.988398 
L 160.245206 189.642238 
L 158.810143 191.296078 
L 157.387336 192.949918 
L 155.982687 194.603758 
L 154.601891 196.257598 
L 153.250403 197.911438 
L 151.933413 199.565278 
L 150.655812 201.219118 
L 149.42217 202.872958 
L 148.236705 204.526798 
L 147.103259 206.180638 
L 146.025271 207.834478 
L 145.005756 209.488318 
L 144.047289 211.142159 
L 143.151982 212.795999 
L 142.32148 214.449839 
L 141.556943 216.103679 
L 140.859048 217.757519 
L 140.227987 219.411359 
L 139.66347 221.065199 
L 139.164733 222.719039 
L 138.730555 224.372879 
L 138.35927 226.026719 
L 138.048795 227.680559 
L 137.79665 229.334399 
L 137.599993 230.988239 
L 137.455647 232.642079 
L 137.360143 234.295919 
L 137.309752 235.949759 
L 137.300531 237.603599 
L 137.328361 239.257439 
L 137.388995 240.911279 
L 137.478095 242.565119 
L 137.591285 244.218959 
L 137.724185 245.872799 
L 137.87246 247.526639 
L 138.031855 249.180479 
L 138.198238 250.834319 
L 138.367632 252.488159 
L 138.536248 254.141999 
L 138.700516 255.795839 
L 138.857108 257.449679 
L 139.002961 259.103519 
L 139.135293 260.757359 
L 139.251619 262.411199 
L 139.349756 264.065039 
L 139.427833 265.718879 
L 139.484286 267.37272 
L 139.517864 269.02656 
L 139.527614 270.6804 
L 139.512879 272.33424 
L 139.473281 273.98808 
L 139.408711 275.64192 
L 139.31931 277.29576 
L 139.205455 278.9496 
L 139.067735 280.60344 
L 138.906934 282.25728 
L 138.724013 283.91112 
L 138.520085 285.56496 
L 138.296399 287.2188 
L 138.054318 288.87264 
L 137.795301 290.52648 
L 137.520885 292.18032 
L 137.232665 293.83416 
L 136.932279 295.488 
z
" clip-path="url(#p26cf618295)" style="fill: #1f77b4; fill-opacity: 0.3"/>
   </g>
   <g id="PolyCollection_2">
    <path d="M 372.403605 115.545224 
L 316.352759 115.545224 
L 314.877612 114.919192 
L 313.398565 114.293159 
L 311.920889 113.667126 
L 310.449943 113.041094 
L 308.991143 112.415061 
L 307.549953 111.789029 
L 306.131863 111.162996 
L 304.742375 110.536964 
L 303.386987 109.910931 
L 302.071172 109.284898 
L 300.800359 108.658866 
L 299.579908 108.032833 
L 298.41508 107.406801 
L 297.311003 106.780768 
L 296.272629 106.154736 
L 295.304689 105.528703 
L 294.411643 104.902671 
L 293.59762 104.276638 
L 292.86636 103.650605 
L 292.221151 103.024573 
L 291.664771 102.39854 
L 291.199422 101.772508 
L 290.826683 101.146475 
L 290.547459 100.520443 
L 290.36194 99.89441 
L 290.269583 99.268377 
L 290.269091 98.642345 
L 290.358422 98.016312 
L 290.534806 97.39028 
L 290.794779 96.764247 
L 291.134241 96.138215 
L 291.548519 95.512182 
L 292.032452 94.886149 
L 292.580486 94.260117 
L 293.186779 93.634084 
L 293.845312 93.008052 
L 294.550004 92.382019 
L 295.294826 91.755987 
L 296.073912 91.129954 
L 296.881662 90.503921 
L 297.712833 89.877889 
L 298.562618 89.251856 
L 299.426708 88.625824 
L 300.301339 87.999791 
L 301.183309 87.373759 
L 302.069993 86.747726 
L 302.95932 86.121693 
L 303.849747 85.495661 
L 304.740206 84.869628 
L 305.630043 84.243596 
L 306.518939 83.617563 
L 307.406833 82.991531 
L 308.293826 82.365498 
L 309.180099 81.739466 
L 310.065821 81.113433 
L 310.951068 80.4874 
L 311.835754 79.861368 
L 312.719563 79.235335 
L 313.601907 78.609303 
L 314.481888 77.98327 
L 315.358286 77.357238 
L 316.229553 76.731205 
L 317.093834 76.105172 
L 317.948994 75.47914 
L 318.79266 74.853107 
L 319.622285 74.227075 
L 320.435204 73.601042 
L 321.228711 72.97501 
L 322.000134 72.348977 
L 322.746913 71.722944 
L 323.466673 71.096912 
L 324.1573 70.470879 
L 324.816999 69.844847 
L 325.444354 69.218814 
L 326.038376 68.592782 
L 326.59853 67.966749 
L 327.124758 67.340716 
L 327.617491 66.714684 
L 328.077636 66.088651 
L 328.506564 65.462619 
L 328.906076 64.836586 
L 329.278364 64.210554 
L 329.62596 63.584521 
L 329.951679 62.958489 
L 330.258552 62.332456 
L 330.549763 61.706423 
L 330.828576 61.080391 
L 331.098267 60.454358 
L 331.362053 59.828326 
L 331.62303 59.202293 
L 331.884112 58.576261 
L 332.147974 57.950228 
L 332.417012 57.324195 
L 332.693297 56.698163 
L 332.97855 56.07213 
L 333.274117 55.446098 
L 333.58096 54.820065 
L 333.899655 54.194033 
L 334.23039 53.568 
L 354.525973 53.568 
L 354.525973 53.568 
L 354.856709 54.194033 
L 355.175403 54.820065 
L 355.482247 55.446098 
L 355.777814 56.07213 
L 356.063067 56.698163 
L 356.339352 57.324195 
L 356.608389 57.950228 
L 356.872252 58.576261 
L 357.133333 59.202293 
L 357.394311 59.828326 
L 357.658097 60.454358 
L 357.927788 61.080391 
L 358.206601 61.706423 
L 358.497812 62.332456 
L 358.804685 62.958489 
L 359.130403 63.584521 
L 359.477999 64.210554 
L 359.850288 64.836586 
L 360.2498 65.462619 
L 360.678728 66.088651 
L 361.138873 66.714684 
L 361.631605 67.340716 
L 362.157834 67.966749 
L 362.717987 68.592782 
L 363.312009 69.218814 
L 363.939365 69.844847 
L 364.599064 70.470879 
L 365.28969 71.096912 
L 366.009451 71.722944 
L 366.75623 72.348977 
L 367.527653 72.97501 
L 368.32116 73.601042 
L 369.134079 74.227075 
L 369.963703 74.853107 
L 370.80737 75.47914 
L 371.662529 76.105172 
L 372.52681 76.731205 
L 373.398078 77.357238 
L 374.274475 77.98327 
L 375.154457 78.609303 
L 376.0368 79.235335 
L 376.92061 79.861368 
L 377.805295 80.4874 
L 378.690543 81.113433 
L 379.576265 81.739466 
L 380.462538 82.365498 
L 381.349531 82.991531 
L 382.237424 83.617563 
L 383.126321 84.243596 
L 384.016157 84.869628 
L 384.906617 85.495661 
L 385.797044 86.121693 
L 386.686371 86.747726 
L 387.573055 87.373759 
L 388.455025 87.999791 
L 389.329655 88.625824 
L 390.193746 89.251856 
L 391.043531 89.877889 
L 391.874702 90.503921 
L 392.682451 91.129954 
L 393.461538 91.755987 
L 394.20636 92.382019 
L 394.911052 93.008052 
L 395.569585 93.634084 
L 396.175877 94.260117 
L 396.723911 94.886149 
L 397.207844 95.512182 
L 397.622122 96.138215 
L 397.961584 96.764247 
L 398.221558 97.39028 
L 398.397942 98.016312 
L 398.487273 98.642345 
L 398.486781 99.268377 
L 398.394423 99.89441 
L 398.208905 100.520443 
L 397.92968 101.146475 
L 397.556942 101.772508 
L 397.091593 102.39854 
L 396.535212 103.024573 
L 395.890004 103.650605 
L 395.158743 104.276638 
L 394.34472 104.902671 
L 393.451674 105.528703 
L 392.483735 106.154736 
L 391.445361 106.780768 
L 390.341283 107.406801 
L 389.176456 108.032833 
L 387.956005 108.658866 
L 386.685192 109.284898 
L 385.369376 109.910931 
L 384.013988 110.536964 
L 382.624501 111.162996 
L 381.206411 111.789029 
L 379.765221 112.415061 
L 378.306421 113.041094 
L 376.835474 113.667126 
L 375.357799 114.293159 
L 373.878751 114.919192 
L 372.403605 115.545224 
z
" clip-path="url(#p26cf618295)" style="fill: #1f77b4; fill-opacity: 0.3"/>
   </g>
   <g id="matplotlib.axis_1">
    <g id="xtick_1">
     <g id="line2d_1">
      <path d="M 127.941818 307.584 
L 127.941818 41.472 
" clip-path="url(#p26cf618295)" style="fill: none; stroke: #b0b0b0; stroke-width: 0.8; stroke-linecap: square"/>
     </g>
     <g id="line2d_2">
      <defs>
       <path id="me76b90818d" d="M 0 0 
L 0 3.5 
" style="stroke: #000000; stroke-width: 0.8"/>
      </defs>
      <g>
       <use xlink:href="#me76b90818d" x="127.941818" y="307.584" style="stroke: #000000; stroke-width: 0.8"/>
      </g>
     </g>
     <g id="text_1">
      <!-- Best -->
      <g transform="translate(116.869943 322.182437) scale(0.1 -0.1)">
       <defs>
        <path id="DejaVuSans-42" d="M 1259 2228 
L 1259 519 
L 2272 519 
Q 2781 519 3026 730 
Q 3272 941 3272 1375 
Q 3272 1813 3026 2020 
Q 2781 2228 2272 2228 
L 1259 2228 
z
M 1259 4147 
L 1259 2741 
L 2194 2741 
Q 2656 2741 2882 2914 
Q 3109 3088 3109 3444 
Q 3109 3797 2882 3972 
Q 2656 4147 2194 4147 
L 1259 4147 
z
M 628 4666 
L 2241 4666 
Q 2963 4666 3353 4366 
Q 3744 4066 3744 3513 
Q 3744 3084 3544 2831 
Q 3344 2578 2956 2516 
Q 3422 2416 3680 2098 
Q 3938 1781 3938 1306 
Q 3938 681 3513 340 
Q 3088 0 2303 0 
L 628 0 
L 628 4666 
z
" transform="scale(0.015625)"/>
        <path id="DejaVuSans-65" d="M 3597 1894 
L 3597 1613 
L 953 1613 
Q 991 1019 1311 708 
Q 1631 397 2203 397 
Q 2534 397 2845 478 
Q 3156 559 3463 722 
L 3463 178 
Q 3153 47 2828 -22 
Q 2503 -91 2169 -91 
Q 1331 -91 842 396 
Q 353 884 353 1716 
Q 353 2575 817 3079 
Q 1281 3584 2069 3584 
Q 2775 3584 3186 3129 
Q 3597 2675 3597 1894 
z
M 3022 2063 
Q 3016 2534 2758 2815 
Q 2500 3097 2075 3097 
Q 1594 3097 1305 2825 
Q 1016 2553 972 2059 
L 3022 2063 
z
" transform="scale(0.015625)"/>
        <path id="DejaVuSans-73" d="M 2834 3397 
L 2834 2853 
Q 2591 2978 2328 3040 
Q 2066 3103 1784 3103 
Q 1356 3103 1142 2972 
Q 928 2841 928 2578 
Q 928 2378 1081 2264 
Q 1234 2150 1697 2047 
L 1894 2003 
Q 2506 1872 2764 1633 
Q 3022 1394 3022 966 
Q 3022 478 2636 193 
Q 2250 -91 1575 -91 
Q 1294 -91 989 -36 
Q 684 19 347 128 
L 347 722 
Q 666 556 975 473 
Q 1284 391 1588 391 
Q 1994 391 2212 530 
Q 2431 669 2431 922 
Q 2431 1156 2273 1281 
Q 2116 1406 1581 1522 
L 1381 1569 
Q 847 1681 609 1914 
Q 372 2147 372 2553 
Q 372 3047 722 3315 
Q 1072 3584 1716 3584 
Q 2034 3584 2315 3537 
Q 2597 3491 2834 3397 
z
" transform="scale(0.015625)"/>
        <path id="DejaVuSans-74" d="M 1172 4494 
L 1172 3500 
L 2356 3500 
L 2356 3053 
L 1172 3053 
L 1172 1153 
Q 1172 725 1289 603 
Q 1406 481 1766 481 
L 2356 481 
L 2356 0 
L 1766 0 
Q 1100 0 847 248 
Q 594 497 594 1153 
L 594 3053 
L 172 3053 
L 172 3500 
L 594 3500 
L 594 4494 
L 1172 4494 
z
" transform="scale(0.015625)"/>
       </defs>
       <use xlink:href="#DejaVuSans-42"/>
       <use xlink:href="#DejaVuSans-65" x="68.603516"/>
       <use xlink:href="#DejaVuSans-73" x="130.126953"/>
       <use xlink:href="#DejaVuSans-74" x="182.226562"/>
      </g>
     </g>
    </g>
    <g id="xtick_2">
     <g id="line2d_3">
      <path d="M 344.378182 307.584 
L 344.378182 41.472 
" clip-path="url(#p26cf618295)" style="fill: none; stroke: #b0b0b0; stroke-width: 0.8; stroke-linecap: square"/>
     </g>
     <g id="line2d_4">
      <g>
       <use xlink:href="#me76b90818d" x="344.378182" y="307.584" style="stroke: #000000; stroke-width: 0.8"/>
      </g>
     </g>
     <g id="text_2">
      <!-- Worst -->
      <g transform="translate(330.048494 322.182437) scale(0.1 -0.1)">
       <defs>
        <path id="DejaVuSans-57" d="M 213 4666 
L 850 4666 
L 1831 722 
L 2809 4666 
L 3519 4666 
L 4500 722 
L 5478 4666 
L 6119 4666 
L 4947 0 
L 4153 0 
L 3169 4050 
L 2175 0 
L 1381 0 
L 213 4666 
z
" transform="scale(0.015625)"/>
        <path id="DejaVuSans-6f" d="M 1959 3097 
Q 1497 3097 1228 2736 
Q 959 2375 959 1747 
Q 959 1119 1226 758 
Q 1494 397 1959 397 
Q 2419 397 2687 759 
Q 2956 1122 2956 1747 
Q 2956 2369 2687 2733 
Q 2419 3097 1959 3097 
z
M 1959 3584 
Q 2709 3584 3137 3096 
Q 3566 2609 3566 1747 
Q 3566 888 3137 398 
Q 2709 -91 1959 -91 
Q 1206 -91 779 398 
Q 353 888 353 1747 
Q 353 2609 779 3096 
Q 1206 3584 1959 3584 
z
" transform="scale(0.015625)"/>
        <path id="DejaVuSans-72" d="M 2631 2963 
Q 2534 3019 2420 3045 
Q 2306 3072 2169 3072 
Q 1681 3072 1420 2755 
Q 1159 2438 1159 1844 
L 1159 0 
L 581 0 
L 581 3500 
L 1159 3500 
L 1159 2956 
Q 1341 3275 1631 3429 
Q 1922 3584 2338 3584 
Q 2397 3584 2469 3576 
Q 2541 3569 2628 3553 
L 2631 2963 
z
" transform="scale(0.015625)"/>
       </defs>
       <use xlink:href="#DejaVuSans-57"/>
       <use xlink:href="#DejaVuSans-6f" x="93.001953"/>
       <use xlink:href="#DejaVuSans-72" x="154.183594"/>
       <use xlink:href="#DejaVuSans-73" x="195.296875"/>
       <use xlink:href="#DejaVuSans-74" x="247.396484"/>
      </g>
     </g>
    </g>
    <g id="text_3">
     <!-- Distribution -->
     <g transform="translate(206.99125 335.860562) scale(0.1 -0.1)">
      <defs>
       <path id="DejaVuSans-44" d="M 1259 4147 
L 1259 519 
L 2022 519 
Q 2988 519 3436 956 
Q 3884 1394 3884 2338 
Q 3884 3275 3436 3711 
Q 2988 4147 2022 4147 
L 1259 4147 
z
M 628 4666 
L 1925 4666 
Q 3281 4666 3915 4102 
Q 4550 3538 4550 2338 
Q 4550 1131 3912 565 
Q 3275 0 1925 0 
L 628 0 
L 628 4666 
z
" transform="scale(0.015625)"/>
       <path id="DejaVuSans-69" d="M 603 3500 
L 1178 3500 
L 1178 0 
L 603 0 
L 603 3500 
z
M 603 4863 
L 1178 4863 
L 1178 4134 
L 603 4134 
L 603 4863 
z
" transform="scale(0.015625)"/>
       <path id="DejaVuSans-62" d="M 3116 1747 
Q 3116 2381 2855 2742 
Q 2594 3103 2138 3103 
Q 1681 3103 1420 2742 
Q 1159 2381 1159 1747 
Q 1159 1113 1420 752 
Q 1681 391 2138 391 
Q 2594 391 2855 752 
Q 3116 1113 3116 1747 
z
M 1159 2969 
Q 1341 3281 1617 3432 
Q 1894 3584 2278 3584 
Q 2916 3584 3314 3078 
Q 3713 2572 3713 1747 
Q 3713 922 3314 415 
Q 2916 -91 2278 -91 
Q 1894 -91 1617 61 
Q 1341 213 1159 525 
L 1159 0 
L 581 0 
L 581 4863 
L 1159 4863 
L 1159 2969 
z
" transform="scale(0.015625)"/>
       <path id="DejaVuSans-75" d="M 544 1381 
L 544 3500 
L 1119 3500 
L 1119 1403 
Q 1119 906 1312 657 
Q 1506 409 1894 409 
Q 2359 409 2629 706 
Q 2900 1003 2900 1516 
L 2900 3500 
L 3475 3500 
L 3475 0 
L 2900 0 
L 2900 538 
Q 2691 219 2414 64 
Q 2138 -91 1772 -91 
Q 1169 -91 856 284 
Q 544 659 544 1381 
z
M 1991 3584 
L 1991 3584 
z
" transform="scale(0.015625)"/>
       <path id="DejaVuSans-6e" d="M 3513 2113 
L 3513 0 
L 2938 0 
L 2938 2094 
Q 2938 2591 2744 2837 
Q 2550 3084 2163 3084 
Q 1697 3084 1428 2787 
Q 1159 2491 1159 1978 
L 1159 0 
L 581 0 
L 581 3500 
L 1159 3500 
L 1159 2956 
Q 1366 3272 1645 3428 
Q 1925 3584 2291 3584 
Q 2894 3584 3203 3211 
Q 3513 2838 3513 2113 
z
" transform="scale(0.015625)"/>
      </defs>
      <use xlink:href="#DejaVuSans-44"/>
      <use xlink:href="#DejaVuSans-69" x="77.001953"/>
      <use xlink:href="#DejaVuSans-73" x="104.785156"/>
      <use xlink:href="#DejaVuSans-74" x="156.884766"/>
      <use xlink:href="#DejaVuSans-72" x="196.09375"/>
      <use xlink:href="#DejaVuSans-69" x="237.207031"/>
      <use xlink:href="#DejaVuSans-62" x="264.990234"/>
      <use xlink:href="#DejaVuSans-75" x="328.466797"/>
      <use xlink:href="#DejaVuSans-74" x="391.845703"/>
      <use xlink:href="#DejaVuSans-69" x="431.054688"/>
      <use xlink:href="#DejaVuSans-6f" x="458.837891"/>
      <use xlink:href="#DejaVuSans-6e" x="520.019531"/>
     </g>
    </g>
   </g>
   <g id="matplotlib.axis_2">
    <g id="ytick_1">
     <g id="line2d_5">
      <path d="M 57.6 270.418854 
L 414.72 270.418854 
" clip-path="url(#p26cf618295)" style="fill: none; stroke: #b0b0b0; stroke-width: 0.8; stroke-linecap: square"/>
     </g>
     <g id="line2d_6">
      <defs>
       <path id="md65e6c7fcd" d="M 0 0 
L -3.5 0 
" style="stroke: #000000; stroke-width: 0.8"/>
      </defs>
      <g>
       <use xlink:href="#md65e6c7fcd" x="57.6" y="270.418854" style="stroke: #000000; stroke-width: 0.8"/>
      </g>
     </g>
     <g id="text_4">
      <!-- 85 -->
      <g transform="translate(37.875 274.218073) scale(0.1 -0.1)">
       <defs>
        <path id="DejaVuSans-38" d="M 2034 2216 
Q 1584 2216 1326 1975 
Q 1069 1734 1069 1313 
Q 1069 891 1326 650 
Q 1584 409 2034 409 
Q 2484 409 2743 651 
Q 3003 894 3003 1313 
Q 3003 1734 2745 1975 
Q 2488 2216 2034 2216 
z
M 1403 2484 
Q 997 2584 770 2862 
Q 544 3141 544 3541 
Q 544 4100 942 4425 
Q 1341 4750 2034 4750 
Q 2731 4750 3128 4425 
Q 3525 4100 3525 3541 
Q 3525 3141 3298 2862 
Q 3072 2584 2669 2484 
Q 3125 2378 3379 2068 
Q 3634 1759 3634 1313 
Q 3634 634 3220 271 
Q 2806 -91 2034 -91 
Q 1263 -91 848 271 
Q 434 634 434 1313 
Q 434 1759 690 2068 
Q 947 2378 1403 2484 
z
M 1172 3481 
Q 1172 3119 1398 2916 
Q 1625 2713 2034 2713 
Q 2441 2713 2670 2916 
Q 2900 3119 2900 3481 
Q 2900 3844 2670 4047 
Q 2441 4250 2034 4250 
Q 1625 4250 1398 4047 
Q 1172 3844 1172 3481 
z
" transform="scale(0.015625)"/>
        <path id="DejaVuSans-35" d="M 691 4666 
L 3169 4666 
L 3169 4134 
L 1269 4134 
L 1269 2991 
Q 1406 3038 1543 3061 
Q 1681 3084 1819 3084 
Q 2600 3084 3056 2656 
Q 3513 2228 3513 1497 
Q 3513 744 3044 326 
Q 2575 -91 1722 -91 
Q 1428 -91 1123 -41 
Q 819 9 494 109 
L 494 744 
Q 775 591 1075 516 
Q 1375 441 1709 441 
Q 2250 441 2565 725 
Q 2881 1009 2881 1497 
Q 2881 1984 2565 2268 
Q 2250 2553 1709 2553 
Q 1456 2553 1204 2497 
Q 953 2441 691 2322 
L 691 4666 
z
" transform="scale(0.015625)"/>
       </defs>
       <use xlink:href="#DejaVuSans-38"/>
       <use xlink:href="#DejaVuSans-35" x="63.623047"/>
      </g>
     </g>
    </g>
    <g id="ytick_2">
     <g id="line2d_7">
      <path d="M 57.6 223.224646 
L 414.72 223.224646 
" clip-path="url(#p26cf618295)" style="fill: none; stroke: #b0b0b0; stroke-width: 0.8; stroke-linecap: square"/>
     </g>
     <g id="line2d_8">
      <g>
       <use xlink:href="#md65e6c7fcd" x="57.6" y="223.224646" style="stroke: #000000; stroke-width: 0.8"/>
      </g>
     </g>
     <g id="text_5">
      <!-- 86 -->
      <g transform="translate(37.875 227.023865) scale(0.1 -0.1)">
       <defs>
        <path id="DejaVuSans-36" d="M 2113 2584 
Q 1688 2584 1439 2293 
Q 1191 2003 1191 1497 
Q 1191 994 1439 701 
Q 1688 409 2113 409 
Q 2538 409 2786 701 
Q 3034 994 3034 1497 
Q 3034 2003 2786 2293 
Q 2538 2584 2113 2584 
z
M 3366 4563 
L 3366 3988 
Q 3128 4100 2886 4159 
Q 2644 4219 2406 4219 
Q 1781 4219 1451 3797 
Q 1122 3375 1075 2522 
Q 1259 2794 1537 2939 
Q 1816 3084 2150 3084 
Q 2853 3084 3261 2657 
Q 3669 2231 3669 1497 
Q 3669 778 3244 343 
Q 2819 -91 2113 -91 
Q 1303 -91 875 529 
Q 447 1150 447 2328 
Q 447 3434 972 4092 
Q 1497 4750 2381 4750 
Q 2619 4750 2861 4703 
Q 3103 4656 3366 4563 
z
" transform="scale(0.015625)"/>
       </defs>
       <use xlink:href="#DejaVuSans-38"/>
       <use xlink:href="#DejaVuSans-36" x="63.623047"/>
      </g>
     </g>
    </g>
    <g id="ytick_3">
     <g id="line2d_9">
      <path d="M 57.6 176.030438 
L 414.72 176.030438 
" clip-path="url(#p26cf618295)" style="fill: none; stroke: #b0b0b0; stroke-width: 0.8; stroke-linecap: square"/>
     </g>
     <g id="line2d_10">
      <g>
       <use xlink:href="#md65e6c7fcd" x="57.6" y="176.030438" style="stroke: #000000; stroke-width: 0.8"/>
      </g>
     </g>
     <g id="text_6">
      <!-- 87 -->
      <g transform="translate(37.875 179.829657) scale(0.1 -0.1)">
       <defs>
        <path id="DejaVuSans-37" d="M 525 4666 
L 3525 4666 
L 3525 4397 
L 1831 0 
L 1172 0 
L 2766 4134 
L 525 4134 
L 525 4666 
z
" transform="scale(0.015625)"/>
       </defs>
       <use xlink:href="#DejaVuSans-38"/>
       <use xlink:href="#DejaVuSans-37" x="63.623047"/>
      </g>
     </g>
    </g>
    <g id="ytick_4">
     <g id="line2d_11">
      <path d="M 57.6 128.83623 
L 414.72 128.83623 
" clip-path="url(#p26cf618295)" style="fill: none; stroke: #b0b0b0; stroke-width: 0.8; stroke-linecap: square"/>
     </g>
     <g id="line2d_12">
      <g>
       <use xlink:href="#md65e6c7fcd" x="57.6" y="128.83623" style="stroke: #000000; stroke-width: 0.8"/>
      </g>
     </g>
     <g id="text_7">
      <!-- 88 -->
      <g transform="translate(37.875 132.635449) scale(0.1 -0.1)">
       <use xlink:href="#DejaVuSans-38"/>
       <use xlink:href="#DejaVuSans-38" x="63.623047"/>
      </g>
     </g>
    </g>
    <g id="ytick_5">
     <g id="line2d_13">
      <path d="M 57.6 81.642022 
L 414.72 81.642022 
" clip-path="url(#p26cf618295)" style="fill: none; stroke: #b0b0b0; stroke-width: 0.8; stroke-linecap: square"/>
     </g>
     <g id="line2d_14">
      <g>
       <use xlink:href="#md65e6c7fcd" x="57.6" y="81.642022" style="stroke: #000000; stroke-width: 0.8"/>
      </g>
     </g>
     <g id="text_8">
      <!-- 89 -->
      <g transform="translate(37.875 85.441241) scale(0.1 -0.1)">
       <defs>
        <path id="DejaVuSans-39" d="M 703 97 
L 703 672 
Q 941 559 1184 500 
Q 1428 441 1663 441 
Q 2288 441 2617 861 
Q 2947 1281 2994 2138 
Q 2813 1869 2534 1725 
Q 2256 1581 1919 1581 
Q 1219 1581 811 2004 
Q 403 2428 403 3163 
Q 403 3881 828 4315 
Q 1253 4750 1959 4750 
Q 2769 4750 3195 4129 
Q 3622 3509 3622 2328 
Q 3622 1225 3098 567 
Q 2575 -91 1691 -91 
Q 1453 -91 1209 -44 
Q 966 3 703 97 
z
M 1959 2075 
Q 2384 2075 2632 2365 
Q 2881 2656 2881 3163 
Q 2881 3666 2632 3958 
Q 2384 4250 1959 4250 
Q 1534 4250 1286 3958 
Q 1038 3666 1038 3163 
Q 1038 2656 1286 2365 
Q 1534 2075 1959 2075 
z
" transform="scale(0.015625)"/>
       </defs>
       <use xlink:href="#DejaVuSans-38"/>
       <use xlink:href="#DejaVuSans-39" x="63.623047"/>
      </g>
     </g>
    </g>
    <g id="text_9">
     <!-- BLEU Scores -->
     <g transform="translate(31.795312 205.75925) rotate(-90) scale(0.1 -0.1)">
      <defs>
       <path id="DejaVuSans-4c" d="M 628 4666 
L 1259 4666 
L 1259 531 
L 3531 531 
L 3531 0 
L 628 0 
L 628 4666 
z
" transform="scale(0.015625)"/>
       <path id="DejaVuSans-45" d="M 628 4666 
L 3578 4666 
L 3578 4134 
L 1259 4134 
L 1259 2753 
L 3481 2753 
L 3481 2222 
L 1259 2222 
L 1259 531 
L 3634 531 
L 3634 0 
L 628 0 
L 628 4666 
z
" transform="scale(0.015625)"/>
       <path id="DejaVuSans-55" d="M 556 4666 
L 1191 4666 
L 1191 1831 
Q 1191 1081 1462 751 
Q 1734 422 2344 422 
Q 2950 422 3222 751 
Q 3494 1081 3494 1831 
L 3494 4666 
L 4128 4666 
L 4128 1753 
Q 4128 841 3676 375 
Q 3225 -91 2344 -91 
Q 1459 -91 1007 375 
Q 556 841 556 1753 
L 556 4666 
z
" transform="scale(0.015625)"/>
       <path id="DejaVuSans-20" transform="scale(0.015625)"/>
       <path id="DejaVuSans-53" d="M 3425 4513 
L 3425 3897 
Q 3066 4069 2747 4153 
Q 2428 4238 2131 4238 
Q 1616 4238 1336 4038 
Q 1056 3838 1056 3469 
Q 1056 3159 1242 3001 
Q 1428 2844 1947 2747 
L 2328 2669 
Q 3034 2534 3370 2195 
Q 3706 1856 3706 1288 
Q 3706 609 3251 259 
Q 2797 -91 1919 -91 
Q 1588 -91 1214 -16 
Q 841 59 441 206 
L 441 856 
Q 825 641 1194 531 
Q 1563 422 1919 422 
Q 2459 422 2753 634 
Q 3047 847 3047 1241 
Q 3047 1584 2836 1778 
Q 2625 1972 2144 2069 
L 1759 2144 
Q 1053 2284 737 2584 
Q 422 2884 422 3419 
Q 422 4038 858 4394 
Q 1294 4750 2059 4750 
Q 2388 4750 2728 4690 
Q 3069 4631 3425 4513 
z
" transform="scale(0.015625)"/>
       <path id="DejaVuSans-63" d="M 3122 3366 
L 3122 2828 
Q 2878 2963 2633 3030 
Q 2388 3097 2138 3097 
Q 1578 3097 1268 2742 
Q 959 2388 959 1747 
Q 959 1106 1268 751 
Q 1578 397 2138 397 
Q 2388 397 2633 464 
Q 2878 531 3122 666 
L 3122 134 
Q 2881 22 2623 -34 
Q 2366 -91 2075 -91 
Q 1284 -91 818 406 
Q 353 903 353 1747 
Q 353 2603 823 3093 
Q 1294 3584 2113 3584 
Q 2378 3584 2631 3529 
Q 2884 3475 3122 3366 
z
" transform="scale(0.015625)"/>
      </defs>
      <use xlink:href="#DejaVuSans-42"/>
      <use xlink:href="#DejaVuSans-4c" x="68.603516"/>
      <use xlink:href="#DejaVuSans-45" x="124.316406"/>
      <use xlink:href="#DejaVuSans-55" x="187.5"/>
      <use xlink:href="#DejaVuSans-20" x="260.693359"/>
      <use xlink:href="#DejaVuSans-53" x="292.480469"/>
      <use xlink:href="#DejaVuSans-63" x="355.957031"/>
      <use xlink:href="#DejaVuSans-6f" x="410.9375"/>
      <use xlink:href="#DejaVuSans-72" x="472.119141"/>
      <use xlink:href="#DejaVuSans-65" x="510.982422"/>
      <use xlink:href="#DejaVuSans-73" x="572.505859"/>
     </g>
    </g>
   </g>
   <g id="LineCollection_1">
    <path d="M 100.887273 131.757837 
L 154.996364 131.757837 
" clip-path="url(#p26cf618295)" style="fill: none; stroke: #1f77b4; stroke-width: 1.5"/>
    <path d="M 317.323636 53.568 
L 371.432727 53.568 
" clip-path="url(#p26cf618295)" style="fill: none; stroke: #1f77b4; stroke-width: 1.5"/>
   </g>
   <g id="LineCollection_2">
    <path d="M 100.887273 295.488 
L 154.996364 295.488 
" clip-path="url(#p26cf618295)" style="fill: none; stroke: #1f77b4; stroke-width: 1.5"/>
    <path d="M 317.323636 115.545224 
L 371.432727 115.545224 
" clip-path="url(#p26cf618295)" style="fill: none; stroke: #1f77b4; stroke-width: 1.5"/>
   </g>
   <g id="LineCollection_3">
    <path d="M 127.941818 295.488 
L 127.941818 131.757837 
" clip-path="url(#p26cf618295)" style="fill: none; stroke: #1f77b4; stroke-width: 1.5"/>
    <path d="M 344.378182 115.545224 
L 344.378182 53.568 
" clip-path="url(#p26cf618295)" style="fill: none; stroke: #1f77b4; stroke-width: 1.5"/>
   </g>
   <g id="LineCollection_4">
    <path d="M 100.887273 161.174348 
L 154.996364 161.174348 
" clip-path="url(#p26cf618295)" style="fill: none; stroke: #1f77b4; stroke-width: 1.5"/>
    <path d="M 317.323636 96.501779 
L 371.432727 96.501779 
" clip-path="url(#p26cf618295)" style="fill: none; stroke: #1f77b4; stroke-width: 1.5"/>
   </g>
   <g id="patch_3">
    <path d="M 57.6 307.584 
L 57.6 41.472 
" style="fill: none; stroke: #000000; stroke-width: 0.8; stroke-linejoin: miter; stroke-linecap: square"/>
   </g>
   <g id="patch_4">
    <path d="M 414.72 307.584 
L 414.72 41.472 
" style="fill: none; stroke: #000000; stroke-width: 0.8; stroke-linejoin: miter; stroke-linecap: square"/>
   </g>
   <g id="patch_5">
    <path d="M 57.6 307.584 
L 414.72 307.584 
" style="fill: none; stroke: #000000; stroke-width: 0.8; stroke-linejoin: miter; stroke-linecap: square"/>
   </g>
   <g id="patch_6">
    <path d="M 57.6 41.472 
L 414.72 41.472 
" style="fill: none; stroke: #000000; stroke-width: 0.8; stroke-linejoin: miter; stroke-linecap: square"/>
   </g>
   <g id="text_10">
    <!-- Violin Plot of best and worst Distributions -->
    <g transform="translate(112.265625 35.472) scale(0.12 -0.12)">
     <defs>
      <path id="DejaVuSans-56" d="M 1831 0 
L 50 4666 
L 709 4666 
L 2188 738 
L 3669 4666 
L 4325 4666 
L 2547 0 
L 1831 0 
z
" transform="scale(0.015625)"/>
      <path id="DejaVuSans-6c" d="M 603 4863 
L 1178 4863 
L 1178 0 
L 603 0 
L 603 4863 
z
" transform="scale(0.015625)"/>
      <path id="DejaVuSans-50" d="M 1259 4147 
L 1259 2394 
L 2053 2394 
Q 2494 2394 2734 2622 
Q 2975 2850 2975 3272 
Q 2975 3691 2734 3919 
Q 2494 4147 2053 4147 
L 1259 4147 
z
M 628 4666 
L 2053 4666 
Q 2838 4666 3239 4311 
Q 3641 3956 3641 3272 
Q 3641 2581 3239 2228 
Q 2838 1875 2053 1875 
L 1259 1875 
L 1259 0 
L 628 0 
L 628 4666 
z
" transform="scale(0.015625)"/>
      <path id="DejaVuSans-66" d="M 2375 4863 
L 2375 4384 
L 1825 4384 
Q 1516 4384 1395 4259 
Q 1275 4134 1275 3809 
L 1275 3500 
L 2222 3500 
L 2222 3053 
L 1275 3053 
L 1275 0 
L 697 0 
L 697 3053 
L 147 3053 
L 147 3500 
L 697 3500 
L 697 3744 
Q 697 4328 969 4595 
Q 1241 4863 1831 4863 
L 2375 4863 
z
" transform="scale(0.015625)"/>
      <path id="DejaVuSans-61" d="M 2194 1759 
Q 1497 1759 1228 1600 
Q 959 1441 959 1056 
Q 959 750 1161 570 
Q 1363 391 1709 391 
Q 2188 391 2477 730 
Q 2766 1069 2766 1631 
L 2766 1759 
L 2194 1759 
z
M 3341 1997 
L 3341 0 
L 2766 0 
L 2766 531 
Q 2569 213 2275 61 
Q 1981 -91 1556 -91 
Q 1019 -91 701 211 
Q 384 513 384 1019 
Q 384 1609 779 1909 
Q 1175 2209 1959 2209 
L 2766 2209 
L 2766 2266 
Q 2766 2663 2505 2880 
Q 2244 3097 1772 3097 
Q 1472 3097 1187 3025 
Q 903 2953 641 2809 
L 641 3341 
Q 956 3463 1253 3523 
Q 1550 3584 1831 3584 
Q 2591 3584 2966 3190 
Q 3341 2797 3341 1997 
z
" transform="scale(0.015625)"/>
      <path id="DejaVuSans-64" d="M 2906 2969 
L 2906 4863 
L 3481 4863 
L 3481 0 
L 2906 0 
L 2906 525 
Q 2725 213 2448 61 
Q 2172 -91 1784 -91 
Q 1150 -91 751 415 
Q 353 922 353 1747 
Q 353 2572 751 3078 
Q 1150 3584 1784 3584 
Q 2172 3584 2448 3432 
Q 2725 3281 2906 2969 
z
M 947 1747 
Q 947 1113 1208 752 
Q 1469 391 1925 391 
Q 2381 391 2643 752 
Q 2906 1113 2906 1747 
Q 2906 2381 2643 2742 
Q 2381 3103 1925 3103 
Q 1469 3103 1208 2742 
Q 947 2381 947 1747 
z
" transform="scale(0.015625)"/>
      <path id="DejaVuSans-77" d="M 269 3500 
L 844 3500 
L 1563 769 
L 2278 3500 
L 2956 3500 
L 3675 769 
L 4391 3500 
L 4966 3500 
L 4050 0 
L 3372 0 
L 2619 2869 
L 1863 0 
L 1184 0 
L 269 3500 
z
" transform="scale(0.015625)"/>
     </defs>
     <use xlink:href="#DejaVuSans-56"/>
     <use xlink:href="#DejaVuSans-69" x="66.158203"/>
     <use xlink:href="#DejaVuSans-6f" x="93.941406"/>
     <use xlink:href="#DejaVuSans-6c" x="155.123047"/>
     <use xlink:href="#DejaVuSans-69" x="182.90625"/>
     <use xlink:href="#DejaVuSans-6e" x="210.689453"/>
     <use xlink:href="#DejaVuSans-20" x="274.068359"/>
     <use xlink:href="#DejaVuSans-50" x="305.855469"/>
     <use xlink:href="#DejaVuSans-6c" x="366.158203"/>
     <use xlink:href="#DejaVuSans-6f" x="393.941406"/>
     <use xlink:href="#DejaVuSans-74" x="455.123047"/>
     <use xlink:href="#DejaVuSans-20" x="494.332031"/>
     <use xlink:href="#DejaVuSans-6f" x="526.119141"/>
     <use xlink:href="#DejaVuSans-66" x="587.300781"/>
     <use xlink:href="#DejaVuSans-20" x="622.505859"/>
     <use xlink:href="#DejaVuSans-62" x="654.292969"/>
     <use xlink:href="#DejaVuSans-65" x="717.769531"/>
     <use xlink:href="#DejaVuSans-73" x="779.292969"/>
     <use xlink:href="#DejaVuSans-74" x="831.392578"/>
     <use xlink:href="#DejaVuSans-20" x="870.601562"/>
     <use xlink:href="#DejaVuSans-61" x="902.388672"/>
     <use xlink:href="#DejaVuSans-6e" x="963.667969"/>
     <use xlink:href="#DejaVuSans-64" x="1027.046875"/>
     <use xlink:href="#DejaVuSans-20" x="1090.523438"/>
     <use xlink:href="#DejaVuSans-77" x="1122.310547"/>
     <use xlink:href="#DejaVuSans-6f" x="1204.097656"/>
     <use xlink:href="#DejaVuSans-72" x="1265.279297"/>
     <use xlink:href="#DejaVuSans-73" x="1306.392578"/>
     <use xlink:href="#DejaVuSans-74" x="1358.492188"/>
     <use xlink:href="#DejaVuSans-20" x="1397.701172"/>
     <use xlink:href="#DejaVuSans-44" x="1429.488281"/>
     <use xlink:href="#DejaVuSans-69" x="1506.490234"/>
     <use xlink:href="#DejaVuSans-73" x="1534.273438"/>
     <use xlink:href="#DejaVuSans-74" x="1586.373047"/>
     <use xlink:href="#DejaVuSans-72" x="1625.582031"/>
     <use xlink:href="#DejaVuSans-69" x="1666.695312"/>
     <use xlink:href="#DejaVuSans-62" x="1694.478516"/>
     <use xlink:href="#DejaVuSans-75" x="1757.955078"/>
     <use xlink:href="#DejaVuSans-74" x="1821.333984"/>
     <use xlink:href="#DejaVuSans-69" x="1860.542969"/>
     <use xlink:href="#DejaVuSans-6f" x="1888.326172"/>
     <use xlink:href="#DejaVuSans-6e" x="1949.507812"/>
     <use xlink:href="#DejaVuSans-73" x="2012.886719"/>
    </g>
   </g>
  </g>
 </g>
 <defs>
  <clipPath id="p26cf618295">
   <rect x="57.6" y="41.472" width="357.12" height="266.112"/>
  </clipPath>
 </defs>
</svg>
